shantell_organic--light.ufo
<glyph name="six" format="2">
	<unicode hex="0036"/>
	<advance width="700"/>
	<image fileName="zero.png" xScale="2.3662938837" yScale="2.3662938837" xOffset="-5902.8248343698" yOffset="-192.644631698" color="0,0,0,0.16492"/>
	<outline>
		<contour>
			<point x="479" y="708" type="curve" smooth="yes"/>
			<point x="258.7868858067" y="546.3542034113"/>
			<point x="132" y="378.7106598985"/>
			<point x="132" y="209" type="curve" smooth="yes"/>
			<point x="132" y="37.471042471"/>
			<point x="224.4422110553" y="-20"/>
			<point x="351" y="-20" type="curve" smooth="yes"/>
			<point x="461.2040816327" y="-20"/>
			<point x="567" y="31.287037037"/>
			<point x="567" y="171" type="curve" smooth="yes"/>
			<point x="567" y="243.4705882353"/>
			<point x="516.076142132" y="325"/>
			<point x="358" y="325" type="curve" smooth="yes"/>
			<point x="221.7333333333" y="325"/>
			<point x="201" y="282"/>
			<point x="162" y="282" type="curve" smooth="yes"/>
			<point x="143" y="282"/>
			<point x="138" y="289.6923076923"/>
			<point x="138" y="307" type="curve" smooth="yes"/>
			<point x="138" y="338"/>
			<point x="230" y="390"/>
			<point x="362" y="390" type="curve" smooth="yes"/>
			<point x="545" y="390"/>
			<point x="635" y="288.5641025641"/>
			<point x="635" y="160" type="curve" smooth="yes"/>
			<point x="635" y="38.4074074074"/>
			<point x="539" y="-85"/>
			<point x="351" y="-85" type="curve" smooth="yes"/>
			<point x="156" y="-85"/>
			<point x="65" y="32"/>
			<point x="65" y="209" type="curve" smooth="yes"/>
			<point x="65" y="391"/>
			<point x="196.6010694016" y="582.5658220429"/>
			<point x="435" y="755" type="curve" smooth="yes"/>
			<point x="468" y="778"/>
			<point x="478" y="786"/>
			<point x="496" y="786" type="curve" smooth="yes"/>
			<point x="509" y="786"/>
			<point x="518" y="776"/>
			<point x="518" y="761" type="curve" smooth="yes"/>
			<point x="518" y="740"/>
			<point x="510" y="730"/>
		</contour>
	</outline>
</glyph>
<glyph name="A" format="2">
	<unicode hex="0041"/>
	<advance width="713"/>
	<outline>
		<contour>
			<point x="605" y="-9" type="curve" smooth="yes"/>
			<point x="620.8260869565" y="-9"/>
			<point x="631" y="3"/>
			<point x="631" y="24" type="curve" smooth="yes"/>
			<point x="631" y="79"/>
			<point x="577.6024749288" y="153.837506543"/>
			<point x="549" y="358" type="curve" smooth="yes"/>
			<point x="521" y="565"/>
			<point x="511" y="660"/>
			<point x="403" y="660" type="curve" smooth="yes"/>
			<point x="338" y="660"/>
			<point x="284" y="604"/>
			<point x="223" y="479" type="curve"/>
			<point x="252" y="486" type="line"/>
			<point x="241" y="504"/>
			<point x="227" y="515"/>
			<point x="211" y="515" type="curve"/>
			<point x="195" y="515"/>
			<point x="186" y="501"/>
			<point x="186" y="480" type="curve" smooth="yes"/>
			<point x="186" y="364"/>
			<point x="93" y="175.6091476091"/>
			<point x="93" y="39" type="curve" smooth="yes"/>
			<point x="93" y="3"/>
			<point x="106" y="-8"/>
			<point x="126" y="-8" type="curve" smooth="yes"/>
			<point x="141" y="-8"/>
			<point x="148" y="5"/>
			<point x="151" y="25" type="curve" smooth="yes"/>
			<point x="198.8889877523" y="365.748566699"/>
			<point x="325" y="595"/>
			<point x="403" y="595" type="curve" smooth="yes"/>
			<point x="456" y="595"/>
			<point x="463" y="521"/>
			<point x="485" y="344" type="curve" smooth="yes"/>
			<point x="498" y="245"/>
			<point x="526.7311110642" y="141.692870513"/>
			<point x="548" y="77" type="curve" smooth="yes"/>
			<point x="568" y="15"/>
			<point x="579" y="-9"/>
		</contour>
		<contour>
			<point x="70" y="194" type="curve" smooth="yes"/>
			<point x="169" y="196"/>
			<point x="244" y="264"/>
			<point x="607" y="264" type="curve" smooth="yes"/>
			<point x="642" y="264"/>
			<point x="672" y="284"/>
			<point x="672" y="303" type="curve" smooth="yes"/>
			<point x="672" y="324"/>
			<point x="667" y="330"/>
			<point x="623" y="330" type="curve" smooth="yes"/>
			<point x="409" y="330"/>
			<point x="217" y="305"/>
			<point x="72" y="248" type="curve" smooth="yes"/>
			<point x="50" y="239"/>
			<point x="44" y="230"/>
			<point x="44" y="216" type="curve" smooth="yes"/>
			<point x="44" y="208"/>
			<point x="57" y="194"/>
		</contour>
	</outline>
</glyph>
<glyph name="I" format="2">
	<unicode hex="0049"/>
	<advance width="607"/>
	<outline>
		<contour>
			<point x="66" y="14" type="curve" smooth="yes"/>
			<point x="139" y="14"/>
			<point x="308" y="25"/>
			<point x="513" y="25" type="curve" smooth="yes"/>
			<point x="563" y="25"/>
			<point x="584" y="43"/>
			<point x="584" y="65" type="curve" smooth="yes"/>
			<point x="584" y="80"/>
			<point x="575" y="91"/>
			<point x="538" y="91" type="curve" smooth="yes"/>
			<point x="353" y="91"/>
			<point x="185" y="89"/>
			<point x="52" y="74" type="curve" smooth="yes"/>
			<point x="30" y="72"/>
			<point x="23" y="61"/>
			<point x="23" y="45" type="curve" smooth="yes"/>
			<point x="23" y="26"/>
			<point x="36" y="14"/>
		</contour>
		<contour>
			<point x="59" y="573" type="curve" smooth="yes"/>
			<point x="158" y="573"/>
			<point x="196" y="599"/>
			<point x="472" y="599" type="curve" smooth="yes"/>
			<point x="534" y="599"/>
			<point x="569" y="615"/>
			<point x="569" y="643" type="curve" smooth="yes"/>
			<point x="569" y="660"/>
			<point x="559" y="665"/>
			<point x="526" y="665" type="curve" smooth="yes"/>
			<point x="360" y="665"/>
			<point x="168" y="653"/>
			<point x="64" y="635" type="curve" smooth="yes"/>
			<point x="33" y="629"/>
			<point x="25" y="613"/>
			<point x="25" y="601" type="curve" smooth="yes"/>
			<point x="25" y="583"/>
			<point x="40" y="573"/>
		</contour>
		<contour>
			<point x="308" y="65" type="curve" smooth="yes"/>
			<point x="323" y="65"/>
			<point x="332" y="74"/>
			<point x="332" y="94" type="curve" smooth="yes"/>
			<point x="332" y="300.7860082305"/>
			<point x="349" y="468.2338403042"/>
			<point x="349" y="555" type="curve" smooth="yes"/>
			<point x="349" y="594"/>
			<point x="330" y="625"/>
			<point x="307" y="625" type="curve" smooth="yes"/>
			<point x="288" y="625"/>
			<point x="282" y="611"/>
			<point x="282" y="584" type="curve" smooth="yes"/>
			<point x="282" y="466.3076923077"/>
			<point x="265" y="304.7922912206"/>
			<point x="265" y="142" type="curve" smooth="yes"/>
			<point x="265" y="95"/>
			<point x="282" y="65"/>
		</contour>
	</outline>
</glyph>
<glyph name="bracketright" format="2">
	<unicode hex="005D"/>
	<advance width="453"/>
	<outline>
		<contour>
			<point x="59" y="-194" type="curve" smooth="yes"/>
			<point x="119" y="-194"/>
			<point x="260" y="-177"/>
			<point x="317" y="-156" type="curve"/>
			<point x="294" y="-183" type="line"/>
			<point x="336" y="78"/>
			<point x="244" y="415"/>
			<point x="268" y="774" type="curve"/>
			<point x="309" y="739" type="line"/>
			<point x="241" y="725"/>
			<point x="148" y="747"/>
			<point x="80" y="747" type="curve" smooth="yes"/>
			<point x="52" y="747"/>
			<point x="30" y="764"/>
			<point x="30" y="793" type="curve" smooth="yes"/>
			<point x="30" y="806"/>
			<point x="36" y="817"/>
			<point x="60" y="817" type="curve" smooth="yes"/>
			<point x="114" y="817"/>
			<point x="183" y="803"/>
			<point x="244" y="803" type="curve" smooth="yes"/>
			<point x="265" y="803"/>
			<point x="286" y="808"/>
			<point x="304" y="808" type="curve" smooth="yes"/>
			<point x="326" y="808"/>
			<point x="340" y="792"/>
			<point x="338" y="770" type="curve" smooth="yes"/>
			<point x="313" y="407"/>
			<point x="406" y="68"/>
			<point x="364" y="-195" type="curve" smooth="yes"/>
			<point x="362" y="-207"/>
			<point x="353" y="-217"/>
			<point x="341" y="-222" type="curve" smooth="yes"/>
			<point x="283" y="-244"/>
			<point x="143" y="-264"/>
			<point x="81" y="-264" type="curve" smooth="yes"/>
			<point x="55" y="-264"/>
			<point x="30" y="-248"/>
			<point x="30" y="-219" type="curve" smooth="yes"/>
			<point x="30" y="-206"/>
			<point x="35" y="-194"/>
		</contour>
	</outline>
</glyph>
<glyph name="d" format="2">
	<unicode hex="0064"/>
	<advance width="613"/>
	<outline>
		<contour>
			<point x="253" y="16" type="curve" smooth="yes"/>
			<point x="343" y="16"/>
			<point x="425.747329949" y="102.568452042"/>
			<point x="461" y="328" type="curve"/>
			<point x="433" y="338" type="line"/>
			<point x="410" y="153"/>
			<point x="477" y="17"/>
			<point x="537" y="17" type="curve" smooth="yes"/>
			<point x="556" y="17"/>
			<point x="570" y="33"/>
			<point x="570" y="46" type="curve" smooth="yes"/>
			<point x="570" y="90.7317073171"/>
			<point x="487" y="109.6285714286"/>
			<point x="487" y="308" type="curve" smooth="yes"/>
			<point x="487" y="461.495412844"/>
			<point x="506" y="561.8577981651"/>
			<point x="506" y="737" type="curve" smooth="yes"/>
			<point x="506" y="784"/>
			<point x="494.95" y="810"/>
			<point x="472" y="810" type="curve" smooth="yes"/>
			<point x="452.6818181818" y="810"/>
			<point x="438" y="797.6575342466"/>
			<point x="438" y="757" type="curve" smooth="yes"/>
			<point x="438" y="323.208516887"/>
			<point x="357" y="81"/>
			<point x="247" y="81" type="curve" smooth="yes"/>
			<point x="180" y="81"/>
			<point x="116" y="167.1255605381"/>
			<point x="116" y="279" type="curve" smooth="yes"/>
			<point x="116" y="356.6026490066"/>
			<point x="167" y="405"/>
			<point x="263" y="405" type="curve" smooth="yes"/>
			<point x="362" y="405"/>
			<point x="361" y="351"/>
			<point x="398" y="351" type="curve" smooth="yes"/>
			<point x="409" y="351"/>
			<point x="418" y="359"/>
			<point x="418" y="371" type="curve" smooth="yes"/>
			<point x="418" y="426"/>
			<point x="358" y="470"/>
			<point x="262" y="470" type="curve" smooth="yes"/>
			<point x="135" y="470"/>
			<point x="50" y="394.2586206896"/>
			<point x="50" y="279" type="curve" smooth="yes"/>
			<point x="50" y="137.4548611111"/>
			<point x="134" y="16"/>
		</contour>
	</outline>
</glyph>
<glyph name="y" format="2">
	<unicode hex="0079"/>
	<advance width="563"/>
	<image fileName="b.png" xScale="2.580311745" yScale="2.580311745" xOffset="-6701.815296469" yOffset="-580.570142633" color="0,0,0,0.24109"/>
	<outline>
		<contour>
			<point x="139" y="421" type="curve" smooth="yes"/>
			<point x="143" y="483"/>
			<point x="132" y="497"/>
			<point x="113" y="497" type="curve" smooth="yes"/>
			<point x="88" y="497"/>
			<point x="68" y="472.1017964072"/>
			<point x="68" y="343" type="curve" smooth="yes"/>
			<point x="68" y="151.4482758621"/>
			<point x="132" y="68"/>
			<point x="236" y="68" type="curve" smooth="yes"/>
			<point x="306" y="68"/>
			<point x="384" y="123"/>
			<point x="423" y="299" type="curve" smooth="yes"/>
			<point x="430" y="336"/>
			<point x="393.9942274747" y="336.0711944786"/>
			<point x="397" y="299" type="curve" smooth="yes"/>
			<point x="400" y="127"/>
			<point x="418" y="66"/>
			<point x="418" y="-5" type="curve" smooth="yes"/>
			<point x="418" y="-117.8358208955"/>
			<point x="386" y="-194"/>
			<point x="281" y="-194" type="curve" smooth="yes"/>
			<point x="178.7" y="-194"/>
			<point x="168.8" y="-164"/>
			<point x="138" y="-164" type="curve" smooth="yes"/>
			<point x="117" y="-164"/>
			<point x="108" y="-175"/>
			<point x="108" y="-191" type="curve" smooth="yes"/>
			<point x="108" y="-236.5"/>
			<point x="179.2962962963" y="-261"/>
			<point x="283" y="-261" type="curve" smooth="yes"/>
			<point x="401" y="-261"/>
			<point x="485" y="-187"/>
			<point x="485" y="-5" type="curve" smooth="yes"/>
			<point x="485" y="187"/>
			<point x="445" y="231"/>
			<point x="462" y="400" type="curve" smooth="yes"/>
			<point x="469.9019884861" y="476.3858886988"/>
			<point x="444.8095238095" y="496"/>
			<point x="424" y="496" type="curve" smooth="yes"/>
			<point x="404.28" y="496"/>
			<point x="399.0020266342" y="489.0187463662"/>
			<point x="395" y="452" type="curve" smooth="yes"/>
			<point x="376.1581703624" y="270.1763439975"/>
			<point x="321" y="133"/>
			<point x="232" y="133" type="curve" smooth="yes"/>
			<point x="160" y="133"/>
			<point x="128.4575118663" y="249.684567828"/>
		</contour>
	</outline>
</glyph>
<glyph name="A.alt1" format="2">
	<advance width="713"/>
	<outline>
		<contour>
			<point x="605" y="-9" type="curve" smooth="yes"/>
			<point x="620" y="-9"/>
			<point x="629" y="2"/>
			<point x="629" y="21" type="curve" smooth="yes"/>
			<point x="629" y="74"/>
			<point x="572" y="161"/>
			<point x="545" y="384" type="curve" smooth="yes"/>
			<point x="520" y="596"/>
			<point x="511" y="694"/>
			<point x="403" y="694" type="curve" smooth="yes"/>
			<point x="338" y="694"/>
			<point x="286" y="635"/>
			<point x="223" y="506" type="curve"/>
			<point x="252" y="513" type="line"/>
			<point x="241" y="531"/>
			<point x="227" y="542"/>
			<point x="211" y="542" type="curve"/>
			<point x="195" y="542"/>
			<point x="186" y="528"/>
			<point x="186" y="507" type="curve" smooth="yes"/>
			<point x="186" y="355"/>
			<point x="93" y="184"/>
			<point x="93" y="39" type="curve" smooth="yes"/>
			<point x="93" y="3"/>
			<point x="106" y="-8"/>
			<point x="126" y="-8" type="curve" smooth="yes"/>
			<point x="141" y="-8"/>
			<point x="148" y="5"/>
			<point x="151" y="25" type="curve" smooth="yes"/>
			<point x="202" y="385"/>
			<point x="325" y="628"/>
			<point x="403" y="628" type="curve" smooth="yes"/>
			<point x="456" y="628"/>
			<point x="462" y="552"/>
			<point x="482" y="376" type="curve" smooth="yes"/>
			<point x="495" y="270"/>
			<point x="525" y="147"/>
			<point x="548" y="77" type="curve" smooth="yes"/>
			<point x="568" y="15"/>
			<point x="579" y="-9"/>
		</contour>
		<contour>
			<point x="70" y="194" type="curve" smooth="yes"/>
			<point x="169" y="196"/>
			<point x="244" y="264"/>
			<point x="607" y="264" type="curve" smooth="yes"/>
			<point x="642" y="264"/>
			<point x="672" y="284"/>
			<point x="672" y="303" type="curve" smooth="yes"/>
			<point x="672" y="324"/>
			<point x="667" y="330"/>
			<point x="623" y="330" type="curve" smooth="yes"/>
			<point x="409" y="330"/>
			<point x="217" y="305"/>
			<point x="72" y="248" type="curve" smooth="yes"/>
			<point x="50" y="239"/>
			<point x="44" y="230"/>
			<point x="44" y="216" type="curve" smooth="yes"/>
			<point x="44" y="208"/>
			<point x="57" y="194"/>
		</contour>
	</outline>
</glyph>
<glyph name="A.alt2" format="2">
	<advance width="713"/>
	<outline>
		<contour>
			<point x="605" y="-9" type="curve" smooth="yes"/>
			<point x="620" y="-9"/>
			<point x="630" y="2"/>
			<point x="630" y="22" type="curve" smooth="yes"/>
			<point x="630" y="76"/>
			<point x="575" y="158"/>
			<point x="547" y="371" type="curve" smooth="yes"/>
			<point x="521" y="581"/>
			<point x="511" y="677"/>
			<point x="403" y="677" type="curve" smooth="yes"/>
			<point x="338" y="677"/>
			<point x="285" y="620"/>
			<point x="223" y="493" type="curve"/>
			<point x="252" y="500" type="line"/>
			<point x="241" y="518"/>
			<point x="227" y="529"/>
			<point x="211" y="529" type="curve"/>
			<point x="195" y="529"/>
			<point x="186" y="515"/>
			<point x="186" y="494" type="curve" smooth="yes"/>
			<point x="186" y="360"/>
			<point x="93" y="180"/>
			<point x="93" y="39" type="curve" smooth="yes"/>
			<point x="93" y="3"/>
			<point x="106" y="-8"/>
			<point x="126" y="-8" type="curve" smooth="yes"/>
			<point x="141" y="-8"/>
			<point x="148" y="5"/>
			<point x="151" y="25" type="curve" smooth="yes"/>
			<point x="200" y="376"/>
			<point x="325" y="612"/>
			<point x="403" y="612" type="curve" smooth="yes"/>
			<point x="456" y="612"/>
			<point x="463" y="537"/>
			<point x="484" y="360" type="curve" smooth="yes"/>
			<point x="496" y="258"/>
			<point x="526" y="145"/>
			<point x="548" y="77" type="curve" smooth="yes"/>
			<point x="568" y="15"/>
			<point x="579" y="-9"/>
		</contour>
		<contour>
			<point x="70" y="194" type="curve" smooth="yes"/>
			<point x="169" y="196"/>
			<point x="244" y="264"/>
			<point x="607" y="264" type="curve" smooth="yes"/>
			<point x="642" y="264"/>
			<point x="672" y="284"/>
			<point x="672" y="303" type="curve" smooth="yes"/>
			<point x="672" y="324"/>
			<point x="667" y="330"/>
			<point x="623" y="330" type="curve" smooth="yes"/>
			<point x="409" y="330"/>
			<point x="217" y="305"/>
			<point x="72" y="248" type="curve" smooth="yes"/>
			<point x="50" y="239"/>
			<point x="44" y="230"/>
			<point x="44" y="216" type="curve" smooth="yes"/>
			<point x="44" y="208"/>
			<point x="57" y="194"/>
		</contour>
	</outline>
</glyph>
<glyph name="C.alt1" format="2">
	<advance width="633"/>
	<outline>
		<contour>
			<point x="324" y="10" type="curve" smooth="yes"/>
			<point x="492" y="10"/>
			<point x="570" y="109"/>
			<point x="570" y="159" type="curve" smooth="yes"/>
			<point x="570" y="177"/>
			<point x="563" y="192"/>
			<point x="550" y="192" type="curve" smooth="yes"/>
			<point x="515" y="192"/>
			<point x="494" y="75"/>
			<point x="323" y="75" type="curve" smooth="yes"/>
			<point x="215" y="75"/>
			<point x="145" y="152"/>
			<point x="145" y="291" type="curve" smooth="yes"/>
			<point x="145" y="454"/>
			<point x="245" y="610"/>
			<point x="389" y="610" type="curve" smooth="yes"/>
			<point x="450" y="610"/>
			<point x="458" y="582"/>
			<point x="458" y="554" type="curve" smooth="yes"/>
			<point x="458" y="522"/>
			<point x="451" y="494"/>
			<point x="481" y="494" type="curve" smooth="yes"/>
			<point x="511" y="494"/>
			<point x="526" y="526"/>
			<point x="526" y="559" type="curve" smooth="yes"/>
			<point x="526" y="629"/>
			<point x="489" y="675"/>
			<point x="391" y="675" type="curve" smooth="yes"/>
			<point x="206" y="675"/>
			<point x="78" y="489"/>
			<point x="78" y="292" type="curve" smooth="yes"/>
			<point x="78" y="134"/>
			<point x="146" y="10"/>
		</contour>
	</outline>
</glyph>
<glyph name="C.alt2" format="2">
	<advance width="633"/>
	<outline>
		<contour>
			<point x="318" y="30" type="curve" smooth="yes"/>
			<point x="481" y="30"/>
			<point x="557" y="125"/>
			<point x="557" y="172" type="curve" smooth="yes"/>
			<point x="557" y="190"/>
			<point x="550" y="205"/>
			<point x="537" y="205" type="curve" smooth="yes"/>
			<point x="503" y="205"/>
			<point x="482" y="95"/>
			<point x="317" y="95" type="curve" smooth="yes"/>
			<point x="220" y="95"/>
			<point x="158" y="166"/>
			<point x="158" y="295" type="curve" smooth="yes"/>
			<point x="158" y="437"/>
			<point x="244" y="573"/>
			<point x="369" y="573" type="curve" smooth="yes"/>
			<point x="430" y="573"/>
			<point x="438" y="545"/>
			<point x="438" y="517" type="curve" smooth="yes"/>
			<point x="438" y="485"/>
			<point x="431" y="457"/>
			<point x="461" y="457" type="curve" smooth="yes"/>
			<point x="491" y="457"/>
			<point x="506" y="489"/>
			<point x="506" y="522" type="curve" smooth="yes"/>
			<point x="506" y="592"/>
			<point x="469" y="638"/>
			<point x="371" y="638" type="curve" smooth="yes"/>
			<point x="205" y="638"/>
			<point x="91" y="472"/>
			<point x="91" y="296" type="curve" smooth="yes"/>
			<point x="91" y="146"/>
			<point x="154" y="30"/>
		</contour>
	</outline>
</glyph>
<glyph name="D.alt1" format="2">
	<advance width="642"/>
	<outline>
		<contour>
			<point x="211" y="-3" type="curve" smooth="yes"/>
			<point x="372" y="-3"/>
			<point x="582" y="186"/>
			<point x="582" y="458" type="curve" smooth="yes"/>
			<point x="582" y="611"/>
			<point x="503" y="699"/>
			<point x="362" y="699" type="curve" smooth="yes"/>
			<point x="234" y="699"/>
			<point x="109" y="657"/>
			<point x="53" y="628" type="curve" smooth="yes"/>
			<point x="40" y="621"/>
			<point x="31" y="609"/>
			<point x="31" y="597" type="curve" smooth="yes"/>
			<point x="31" y="584"/>
			<point x="41" y="574"/>
			<point x="63" y="574" type="curve" smooth="yes"/>
			<point x="132" y="574"/>
			<point x="195" y="634"/>
			<point x="346" y="634" type="curve" smooth="yes"/>
			<point x="472" y="634"/>
			<point x="516" y="569"/>
			<point x="516" y="456" type="curve" smooth="yes"/>
			<point x="516" y="228"/>
			<point x="347" y="64"/>
			<point x="164" y="54" type="curve"/>
			<point x="186" y="42" type="line"/>
			<point x="176" y="84"/>
			<point x="174" y="119"/>
			<point x="174" y="154" type="curve" smooth="yes"/>
			<point x="174" y="361"/>
			<point x="198" y="481"/>
			<point x="198" y="574" type="curve" smooth="yes"/>
			<point x="198" y="600"/>
			<point x="186" y="622"/>
			<point x="172" y="622" type="curve" smooth="yes"/>
			<point x="152" y="622"/>
			<point x="143" y="608"/>
			<point x="138" y="569" type="curve" smooth="yes"/>
			<point x="120" y="429"/>
			<point x="110" y="291"/>
			<point x="110" y="101" type="curve" smooth="yes"/>
			<point x="110" y="50"/>
			<point x="153" y="-3"/>
		</contour>
	</outline>
</glyph>
<glyph name="J.alt2" format="2">
	<advance width="584"/>
	<outline>
		<contour>
			<point x="279" y="8" type="curve" smooth="yes"/>
			<point x="420" y="8"/>
			<point x="497" y="70"/>
			<point x="497" y="206" type="curve" smooth="yes"/>
			<point x="497" y="306"/>
			<point x="450" y="478"/>
			<point x="408" y="591" type="curve" smooth="yes"/>
			<point x="394" y="631"/>
			<point x="381" y="645"/>
			<point x="349" y="645" type="curve" smooth="yes"/>
			<point x="323" y="645"/>
			<point x="325" y="613"/>
			<point x="337" y="584" type="curve" smooth="yes"/>
			<point x="381" y="478"/>
			<point x="429" y="304"/>
			<point x="429" y="212" type="curve" smooth="yes"/>
			<point x="429" y="117"/>
			<point x="392" y="73"/>
			<point x="279" y="73" type="curve" smooth="yes"/>
			<point x="196" y="73"/>
			<point x="159" y="113"/>
			<point x="159" y="173" type="curve" smooth="yes"/>
			<point x="159" y="217"/>
			<point x="191" y="232"/>
			<point x="191" y="258" type="curve" smooth="yes"/>
			<point x="191" y="274"/>
			<point x="183" y="281"/>
			<point x="169" y="281" type="curve" smooth="yes"/>
			<point x="138" y="281"/>
			<point x="91" y="221"/>
			<point x="91" y="161" type="curve" smooth="yes"/>
			<point x="91" y="65"/>
			<point x="168" y="8"/>
		</contour>
		<contour>
			<point x="125" y="603" type="curve" smooth="yes"/>
			<point x="213" y="603"/>
			<point x="351" y="615"/>
			<point x="494" y="615" type="curve" smooth="yes"/>
			<point x="527" y="615"/>
			<point x="544" y="626"/>
			<point x="544" y="645" type="curve" smooth="yes"/>
			<point x="544" y="674"/>
			<point x="520" y="681"/>
			<point x="498" y="681" type="curve" smooth="yes"/>
			<point x="337" y="681"/>
			<point x="256" y="669"/>
			<point x="140" y="669" type="curve" smooth="yes"/>
			<point x="99" y="669"/>
			<point x="93" y="682"/>
			<point x="66" y="682" type="curve" smooth="yes"/>
			<point x="48" y="682"/>
			<point x="38" y="672"/>
			<point x="38" y="656" type="curve" smooth="yes"/>
			<point x="38" y="618"/>
			<point x="89" y="603"/>
		</contour>
	</outline>
</glyph>
<glyph name="K.alt2" format="2">
	<advance width="654"/>
	<outline>
		<contour>
			<point x="135" y="-11" type="curve" smooth="yes"/>
			<point x="151" y="-11"/>
			<point x="161" y="0"/>
			<point x="161" y="19" type="curve" smooth="yes"/>
			<point x="161" y="73"/>
			<point x="149" y="69"/>
			<point x="149" y="225" type="curve" smooth="yes"/>
			<point x="149" y="332"/>
			<point x="174" y="467"/>
			<point x="174" y="552" type="curve" smooth="yes"/>
			<point x="174" y="617"/>
			<point x="168" y="710"/>
			<point x="122" y="710" type="curve" smooth="yes"/>
			<point x="107" y="710"/>
			<point x="95" y="700"/>
			<point x="95" y="676" type="curve" smooth="yes"/>
			<point x="95" y="637"/>
			<point x="107" y="618"/>
			<point x="107" y="552" type="curve" smooth="yes"/>
			<point x="107" y="484"/>
			<point x="83" y="346"/>
			<point x="83" y="187" type="curve" smooth="yes"/>
			<point x="83" y="41"/>
			<point x="96" y="-11"/>
		</contour>
		<contour>
			<point x="581" y="-11" type="curve" smooth="yes"/>
			<point x="601" y="-11"/>
			<point x="609" y="-2"/>
			<point x="609" y="14" type="curve" smooth="yes"/>
			<point x="609" y="36"/>
			<point x="588" y="51"/>
			<point x="559" y="56" type="curve" smooth="yes"/>
			<point x="346" y="92"/>
			<point x="209" y="202"/>
			<point x="209" y="291" type="curve" smooth="yes"/>
			<point x="209" y="349"/>
			<point x="304" y="469"/>
			<point x="482" y="569" type="curve" smooth="yes"/>
			<point x="518" y="589"/>
			<point x="540" y="604"/>
			<point x="540" y="627" type="curve" smooth="yes"/>
			<point x="540" y="644"/>
			<point x="530" y="652"/>
			<point x="512" y="652" type="curve" smooth="yes"/>
			<point x="491" y="652"/>
			<point x="469" y="642"/>
			<point x="427" y="615" type="curve" smooth="yes"/>
			<point x="288" y="534"/>
			<point x="149" y="416"/>
			<point x="149" y="288" type="curve" smooth="yes"/>
			<point x="149" y="101"/>
			<point x="460" y="-11"/>
		</contour>
	</outline>
</glyph>
<glyph name="L.alt1" format="2">
	<advance width="556"/>
	<outline>
		<contour>
			<point x="286" y="16" type="curve" smooth="yes"/>
			<point x="362" y="16"/>
			<point x="427" y="29"/>
			<point x="485" y="55" type="curve" smooth="yes"/>
			<point x="502" y="63"/>
			<point x="513" y="79"/>
			<point x="513" y="95" type="curve" smooth="yes"/>
			<point x="513" y="111"/>
			<point x="503" y="121"/>
			<point x="486" y="121" type="curve" smooth="yes"/>
			<point x="458" y="121"/>
			<point x="422" y="80"/>
			<point x="289" y="80" type="curve" smooth="yes"/>
			<point x="192" y="80"/>
			<point x="154" y="144"/>
			<point x="154" y="244" type="curve" smooth="yes"/>
			<point x="154" y="382"/>
			<point x="201" y="481"/>
			<point x="201" y="601" type="curve" smooth="yes"/>
			<point x="201" y="648"/>
			<point x="186" y="667"/>
			<point x="160" y="667" type="curve" smooth="yes"/>
			<point x="135" y="667"/>
			<point x="134" y="650"/>
			<point x="134" y="615" type="curve" smooth="yes"/>
			<point x="134" y="494"/>
			<point x="86" y="392"/>
			<point x="86" y="251" type="curve" smooth="yes"/>
			<point x="86" y="99"/>
			<point x="156" y="16"/>
		</contour>
	</outline>
</glyph>
<glyph name="M.alt1" format="2">
	<advance width="916"/>
	<outline>
		<contour>
			<point x="183" y="460" type="curve" smooth="yes"/>
			<point x="191" y="346"/>
			<point x="157" y="351"/>
			<point x="174" y="461" type="curve" smooth="yes"/>
			<point x="197" y="610"/>
			<point x="232" y="677"/>
			<point x="282" y="677" type="curve" smooth="yes"/>
			<point x="352" y="677"/>
			<point x="374" y="517"/>
			<point x="411" y="245" type="curve" smooth="yes"/>
			<point x="416" y="211"/>
			<point x="430" y="141"/>
			<point x="463" y="79" type="curve" smooth="yes"/>
			<point x="480" y="48"/>
			<point x="414" y="19"/>
			<point x="442" y="71" type="curve" smooth="yes"/>
			<point x="523" y="210"/>
			<point x="549" y="439"/>
			<point x="596" y="547" type="curve" smooth="yes"/>
			<point x="635" y="637"/>
			<point x="664" y="671"/>
			<point x="693" y="671" type="curve" smooth="yes"/>
			<point x="726" y="671"/>
			<point x="776" y="629"/>
			<point x="785" y="431" type="curve" smooth="yes"/>
			<point x="791" y="307"/>
			<point x="818" y="171"/>
			<point x="861" y="59" type="curve" smooth="yes"/>
			<point x="875" y="19"/>
			<point x="861" y="7"/>
			<point x="840" y="7" type="curve" smooth="yes"/>
			<point x="818" y="7"/>
			<point x="806" y="22"/>
			<point x="784" y="76" type="curve" smooth="yes"/>
			<point x="753" y="152"/>
			<point x="726" y="303"/>
			<point x="721" y="417" type="curve" smooth="yes"/>
			<point x="717" y="501"/>
			<point x="704" y="543"/>
			<point x="679" y="585" type="curve" smooth="yes"/>
			<point x="654" y="627"/>
			<point x="757" y="657"/>
			<point x="690" y="579" type="curve" smooth="yes"/>
			<point x="609" y="484"/>
			<point x="612" y="245"/>
			<point x="501" y="38" type="curve" smooth="yes"/>
			<point x="490" y="18"/>
			<point x="482" y="7"/>
			<point x="458" y="7" type="curve" smooth="yes"/>
			<point x="438" y="7"/>
			<point x="426" y="17"/>
			<point x="409" y="42" type="curve" smooth="yes"/>
			<point x="366" y="109"/>
			<point x="343" y="234"/>
			<point x="325" y="363" type="curve" smooth="yes"/>
			<point x="314" y="454"/>
			<point x="295" y="539"/>
			<point x="269" y="604" type="curve" smooth="yes"/>
			<point x="240" y="678"/>
			<point x="319" y="693"/>
			<point x="276" y="606" type="curve" smooth="yes"/>
			<point x="224" y="489"/>
			<point x="191" y="287"/>
			<point x="191" y="45" type="curve" smooth="yes"/>
			<point x="191" y="17"/>
			<point x="179" y="4"/>
			<point x="163" y="4" type="curve" smooth="yes"/>
			<point x="142" y="4"/>
			<point x="113" y="22"/>
			<point x="113" y="144" type="curve" smooth="yes"/>
			<point x="113" y="243"/>
			<point x="123" y="307"/>
			<point x="123" y="375" type="curve" smooth="yes"/>
			<point x="123" y="526"/>
			<point x="92" y="556"/>
			<point x="92" y="588" type="curve" smooth="yes"/>
			<point x="92" y="604"/>
			<point x="101" y="613"/>
			<point x="118" y="613" type="curve" smooth="yes"/>
			<point x="154" y="613"/>
			<point x="177" y="547"/>
		</contour>
	</outline>
</glyph>
<glyph name="N.alt2" format="2">
	<advance width="754"/>
	<outline>
		<contour>
			<point x="117" y="48" type="curve" smooth="yes"/>
			<point x="135" y="48"/>
			<point x="148" y="64"/>
			<point x="157" y="86" type="curve" smooth="yes"/>
			<point x="181" y="152"/>
			<point x="193" y="228"/>
			<point x="193" y="310" type="curve" smooth="yes"/>
			<point x="193" y="379"/>
			<point x="185" y="446"/>
			<point x="175" y="539" type="curve"/>
			<point x="164" y="535" type="line"/>
			<point x="330" y="464"/>
			<point x="368" y="49"/>
			<point x="567" y="49" type="curve" smooth="yes"/>
			<point x="645" y="49"/>
			<point x="658" y="133"/>
			<point x="658" y="249" type="curve" smooth="yes"/>
			<point x="658" y="355"/>
			<point x="650" y="435"/>
			<point x="669" y="529" type="curve" smooth="yes"/>
			<point x="676" y="566"/>
			<point x="663" y="599"/>
			<point x="638" y="599" type="curve" smooth="yes"/>
			<point x="617" y="599"/>
			<point x="606" y="586"/>
			<point x="599" y="554" type="curve" smooth="yes"/>
			<point x="579" y="463"/>
			<point x="588" y="359"/>
			<point x="588" y="244" type="curve" smooth="yes"/>
			<point x="588" y="176"/>
			<point x="580" y="141"/>
			<point x="552" y="111" type="curve"/>
			<point x="576" y="123" type="line"/>
			<point x="414" y="123"/>
			<point x="362" y="601"/>
			<point x="156" y="601" type="curve" smooth="yes"/>
			<point x="123" y="601"/>
			<point x="107" y="574"/>
			<point x="107" y="536" type="curve" smooth="yes"/>
			<point x="107" y="512"/>
			<point x="123" y="406"/>
			<point x="123" y="312" type="curve" smooth="yes"/>
			<point x="123" y="163"/>
			<point x="84" y="129"/>
			<point x="84" y="87" type="curve" smooth="yes"/>
			<point x="84" y="57"/>
			<point x="99" y="48"/>
		</contour>
	</outline>
</glyph>
<glyph name="Q.alt1" format="2">
	<advance width="716"/>
	<outline>
		<contour>
			<point x="441" y="279" type="curve" smooth="yes"/>
			<point x="471" y="235"/>
			<point x="541" y="74"/>
			<point x="643" y="-55" type="curve" smooth="yes"/>
			<point x="669" y="-87"/>
			<point x="651" y="-104"/>
			<point x="639" y="-104" type="curve" smooth="yes"/>
			<point x="617" y="-104"/>
			<point x="602" y="-97"/>
			<point x="572" y="-65" type="curve" smooth="yes"/>
			<point x="498" y="13"/>
			<point x="421" y="195"/>
			<point x="367" y="274" type="curve" smooth="yes"/>
			<point x="342" y="309"/>
			<point x="344" y="336"/>
			<point x="371" y="336" type="curve" smooth="yes"/>
			<point x="400" y="336"/>
			<point x="411" y="323"/>
		</contour>
		<contour>
			<point x="217" y="575" type="curve" smooth="yes"/>
			<point x="158" y="519"/>
			<point x="124" y="407"/>
			<point x="124" y="310" type="curve" smooth="yes"/>
			<point x="124" y="177"/>
			<point x="187" y="56"/>
			<point x="360" y="56" type="curve" smooth="yes"/>
			<point x="502" y="56"/>
			<point x="589" y="183"/>
			<point x="589" y="315" type="curve" smooth="yes"/>
			<point x="589" y="484"/>
			<point x="517" y="644"/>
			<point x="384" y="644" type="curve" smooth="yes"/>
			<point x="331" y="644"/>
			<point x="264" y="598"/>
			<point x="223" y="519" type="curve" smooth="yes"/>
			<point x="207" y="488"/>
			<point x="194" y="479"/>
			<point x="172" y="479" type="curve" smooth="yes"/>
			<point x="162" y="479"/>
			<point x="156" y="488"/>
			<point x="156" y="501" type="curve" smooth="yes"/>
			<point x="156" y="589"/>
			<point x="271" y="709"/>
			<point x="399" y="709" type="curve" smooth="yes"/>
			<point x="539" y="709"/>
			<point x="656" y="546"/>
			<point x="656" y="327" type="curve" smooth="yes"/>
			<point x="656" y="144"/>
			<point x="547" y="-9"/>
			<point x="360" y="-9" type="curve" smooth="yes"/>
			<point x="137" y="-9"/>
			<point x="57" y="142"/>
			<point x="57" y="310" type="curve" smooth="yes"/>
			<point x="57" y="534"/>
			<point x="191" y="654"/>
			<point x="233" y="654" type="curve" smooth="yes"/>
			<point x="256" y="654"/>
			<point x="264" y="639"/>
			<point x="264" y="626" type="curve" smooth="yes"/>
			<point x="264" y="609"/>
			<point x="246" y="603"/>
		</contour>
	</outline>
</glyph>
<glyph name="Q.alt2" format="2">
	<advance width="716"/>
	<outline>
		<contour>
			<point x="441" y="279" type="curve" smooth="yes"/>
			<point x="471" y="235"/>
			<point x="541" y="74"/>
			<point x="643" y="-55" type="curve" smooth="yes"/>
			<point x="669" y="-87"/>
			<point x="651" y="-104"/>
			<point x="639" y="-104" type="curve" smooth="yes"/>
			<point x="617" y="-104"/>
			<point x="602" y="-97"/>
			<point x="572" y="-65" type="curve" smooth="yes"/>
			<point x="498" y="13"/>
			<point x="421" y="195"/>
			<point x="367" y="274" type="curve" smooth="yes"/>
			<point x="342" y="309"/>
			<point x="346" y="337"/>
			<point x="373" y="337" type="curve" smooth="yes"/>
			<point x="402" y="337"/>
			<point x="411" y="323"/>
		</contour>
		<contour>
			<point x="217" y="576" type="curve" smooth="yes"/>
			<point x="151" y="514"/>
			<point x="111" y="405"/>
			<point x="111" y="306" type="curve" smooth="yes"/>
			<point x="111" y="176"/>
			<point x="178" y="56"/>
			<point x="360" y="56" type="curve" smooth="yes"/>
			<point x="509" y="56"/>
			<point x="601" y="183"/>
			<point x="601" y="315" type="curve" smooth="yes"/>
			<point x="601" y="484"/>
			<point x="525" y="644"/>
			<point x="384" y="644" type="curve" smooth="yes"/>
			<point x="331" y="644"/>
			<point x="264" y="598"/>
			<point x="223" y="519" type="curve" smooth="yes"/>
			<point x="207" y="488"/>
			<point x="195" y="480"/>
			<point x="174" y="480" type="curve" smooth="yes"/>
			<point x="163" y="480"/>
			<point x="156" y="489"/>
			<point x="156" y="502" type="curve" smooth="yes"/>
			<point x="156" y="589"/>
			<point x="265" y="709"/>
			<point x="399" y="709" type="curve" smooth="yes"/>
			<point x="545" y="709"/>
			<point x="668" y="546"/>
			<point x="668" y="327" type="curve" smooth="yes"/>
			<point x="668" y="144"/>
			<point x="554" y="-9"/>
			<point x="360" y="-9" type="curve" smooth="yes"/>
			<point x="128" y="-9"/>
			<point x="44" y="141"/>
			<point x="44" y="306" type="curve" smooth="yes"/>
			<point x="44" y="529"/>
			<point x="191" y="654"/>
			<point x="233" y="654" type="curve" smooth="yes"/>
			<point x="256" y="654"/>
			<point x="264" y="639"/>
			<point x="264" y="626" type="curve" smooth="yes"/>
			<point x="264" y="609"/>
			<point x="246" y="603"/>
		</contour>
	</outline>
</glyph>
<glyph name="S.alt1" format="2">
	<advance width="561"/>
	<outline>
		<contour>
			<point x="162" y="-2" type="curve" smooth="yes"/>
			<point x="332" y="-2"/>
			<point x="496" y="43"/>
			<point x="496" y="134" type="curve" smooth="yes"/>
			<point x="496" y="292"/>
			<point x="136" y="307"/>
			<point x="136" y="418" type="curve" smooth="yes"/>
			<point x="136" y="506"/>
			<point x="250" y="593"/>
			<point x="459" y="630" type="curve" smooth="yes"/>
			<point x="493" y="636"/>
			<point x="504" y="648"/>
			<point x="504" y="667" type="curve" smooth="yes"/>
			<point x="504" y="688"/>
			<point x="490" y="700"/>
			<point x="461" y="700" type="curve" smooth="yes"/>
			<point x="338" y="700"/>
			<point x="67" y="587"/>
			<point x="67" y="415" type="curve" smooth="yes"/>
			<point x="67" y="251"/>
			<point x="406" y="249"/>
			<point x="425" y="128" type="curve"/>
			<point x="382" y="89"/>
			<point x="290" y="66"/>
			<point x="154" y="66" type="curve" smooth="yes"/>
			<point x="108" y="66"/>
			<point x="100" y="76"/>
			<point x="72" y="76" type="curve" smooth="yes"/>
			<point x="52" y="76"/>
			<point x="43" y="67"/>
			<point x="43" y="51" type="curve" smooth="yes"/>
			<point x="43" y="20"/>
			<point x="82" y="-2"/>
		</contour>
	</outline>
</glyph>
<glyph name="S.alt2" format="2">
	<advance width="561"/>
	<outline>
		<contour>
			<point x="162" y="4" type="curve" smooth="yes"/>
			<point x="332" y="4"/>
			<point x="496" y="49"/>
			<point x="496" y="140" type="curve" smooth="yes"/>
			<point x="496" y="297"/>
			<point x="136" y="311"/>
			<point x="136" y="418" type="curve" smooth="yes"/>
			<point x="136" y="502"/>
			<point x="250" y="586"/>
			<point x="459" y="621" type="curve" smooth="yes"/>
			<point x="493" y="626"/>
			<point x="504" y="638"/>
			<point x="504" y="657" type="curve" smooth="yes"/>
			<point x="504" y="678"/>
			<point x="490" y="690"/>
			<point x="461" y="690" type="curve" smooth="yes"/>
			<point x="338" y="690"/>
			<point x="67" y="586"/>
			<point x="67" y="415" type="curve" smooth="yes"/>
			<point x="67" y="254"/>
			<point x="407" y="253"/>
			<point x="425" y="134" type="curve"/>
			<point x="381" y="94"/>
			<point x="290" y="72"/>
			<point x="154" y="72" type="curve" smooth="yes"/>
			<point x="108" y="72"/>
			<point x="100" y="82"/>
			<point x="72" y="82" type="curve" smooth="yes"/>
			<point x="52" y="82"/>
			<point x="43" y="73"/>
			<point x="43" y="57" type="curve" smooth="yes"/>
			<point x="43" y="26"/>
			<point x="82" y="4"/>
		</contour>
	</outline>
</glyph>
<glyph name="T.alt1" format="2">
	<advance width="647"/>
	<outline>
		<contour>
			<point x="295" y="616" type="curve" smooth="yes"/>
			<point x="271" y="334"/>
			<point x="283" y="170"/>
			<point x="292" y="89" type="curve" smooth="yes"/>
			<point x="301" y="9"/>
			<point x="322" y="-13"/>
			<point x="345" y="-13" type="curve" smooth="yes"/>
			<point x="360" y="-13"/>
			<point x="371" y="-6"/>
			<point x="371" y="13" type="curve" smooth="yes"/>
			<point x="371" y="56"/>
			<point x="333" y="167"/>
			<point x="357" y="544" type="curve" smooth="yes"/>
			<point x="362" y="632"/>
			<point x="355" y="660"/>
			<point x="324" y="660" type="curve" smooth="yes"/>
			<point x="307" y="660"/>
			<point x="297" y="642"/>
		</contour>
		<contour>
			<point x="134" y="639" type="curve" smooth="yes"/>
			<point x="262" y="635"/>
			<point x="337" y="634"/>
			<point x="489" y="634" type="curve" smooth="yes"/>
			<point x="553" y="634"/>
			<point x="618" y="650"/>
			<point x="618" y="685" type="curve" smooth="yes"/>
			<point x="618" y="700"/>
			<point x="608" y="711"/>
			<point x="586" y="711" type="curve" smooth="yes"/>
			<point x="555" y="711"/>
			<point x="545" y="700"/>
			<point x="452" y="700" type="curve" smooth="yes"/>
			<point x="317" y="700"/>
			<point x="245" y="706"/>
			<point x="80" y="706" type="curve" smooth="yes"/>
			<point x="52" y="706"/>
			<point x="41" y="697"/>
			<point x="41" y="685" type="curve" smooth="yes"/>
			<point x="41" y="663"/>
			<point x="56" y="641"/>
		</contour>
	</outline>
</glyph>
<glyph name="Y.alt2" format="2">
	<advance width="601"/>
	<outline>
		<contour>
			<point x="542" y="574" type="curve" smooth="yes"/>
			<point x="416" y="438"/>
			<point x="304" y="265"/>
			<point x="268" y="68" type="curve" smooth="yes"/>
			<point x="259" y="18"/>
			<point x="247" y="6"/>
			<point x="222" y="6" type="curve" smooth="yes"/>
			<point x="196" y="6"/>
			<point x="184" y="28"/>
			<point x="198" y="89" type="curve" smooth="yes"/>
			<point x="234" y="266"/>
			<point x="352" y="478"/>
			<point x="501" y="640" type="curve" smooth="yes"/>
			<point x="527" y="668"/>
			<point x="542" y="673"/>
			<point x="557" y="673" type="curve" smooth="yes"/>
			<point x="570" y="673"/>
			<point x="583" y="662"/>
			<point x="583" y="643" type="curve" smooth="yes"/>
			<point x="583" y="619"/>
			<point x="579" y="612"/>
		</contour>
		<contour>
			<point x="74" y="661" type="curve" smooth="yes"/>
			<point x="158" y="525"/>
			<point x="211" y="504"/>
			<point x="301" y="363" type="curve" smooth="yes"/>
			<point x="312" y="344"/>
			<point x="316" y="309"/>
			<point x="280" y="309" type="curve" smooth="yes"/>
			<point x="262" y="309"/>
			<point x="250" y="321"/>
			<point x="239" y="337" type="curve" smooth="yes"/>
			<point x="144" y="473"/>
			<point x="88" y="507"/>
			<point x="27" y="600" type="curve" smooth="yes"/>
			<point x="3" y="639"/>
			<point x="-1" y="648"/>
			<point x="-1" y="664" type="curve" smooth="yes"/>
			<point x="-1" y="681"/>
			<point x="10" y="692"/>
			<point x="27" y="692" type="curve" smooth="yes"/>
			<point x="46" y="692"/>
			<point x="59" y="683"/>
		</contour>
	</outline>
</glyph>
<glyph name="Z.alt1" format="2">
	<advance width="636"/>
	<outline>
		<contour>
			<point x="144" y="676" type="curve" smooth="yes"/>
			<point x="206" y="690"/>
			<point x="262" y="700"/>
			<point x="320" y="700" type="curve" smooth="yes"/>
			<point x="493" y="700"/>
			<point x="533" y="635"/>
			<point x="533" y="560" type="curve" smooth="yes"/>
			<point x="533" y="491"/>
			<point x="507" y="443"/>
			<point x="314" y="316" type="curve" smooth="yes"/>
			<point x="125" y="192"/>
			<point x="133" y="142"/>
			<point x="146" y="51" type="curve" smooth="yes"/>
			<point x="149" y="28"/>
			<point x="78" y="94"/>
			<point x="122" y="76" type="curve" smooth="yes"/>
			<point x="146" y="66"/>
			<point x="175" y="65"/>
			<point x="195" y="65" type="curve" smooth="yes"/>
			<point x="269" y="65"/>
			<point x="344" y="73"/>
			<point x="429" y="73" type="curve" smooth="yes"/>
			<point x="556" y="73"/>
			<point x="608" y="61"/>
			<point x="608" y="26" type="curve" smooth="yes"/>
			<point x="608" y="9"/>
			<point x="593" y="0"/>
			<point x="561" y="0" type="curve" smooth="yes"/>
			<point x="515" y="0"/>
			<point x="494" y="7"/>
			<point x="413" y="7" type="curve" smooth="yes"/>
			<point x="335" y="7"/>
			<point x="261" y="0"/>
			<point x="198" y="0" type="curve" smooth="yes"/>
			<point x="106" y="0"/>
			<point x="74" y="41"/>
			<point x="74" y="114" type="curve" smooth="yes"/>
			<point x="74" y="169"/>
			<point x="97" y="261"/>
			<point x="289" y="381" type="curve" smooth="yes"/>
			<point x="464" y="489"/>
			<point x="477" y="540"/>
			<point x="464" y="612" type="curve" smooth="yes"/>
			<point x="453" y="668"/>
			<point x="514" y="578"/>
			<point x="469" y="605" type="curve" smooth="yes"/>
			<point x="438" y="623"/>
			<point x="401" y="633"/>
			<point x="321" y="633" type="curve" smooth="yes"/>
			<point x="214" y="633"/>
			<point x="170" y="610"/>
			<point x="132" y="610" type="curve" smooth="yes"/>
			<point x="117" y="610"/>
			<point x="98" y="618"/>
			<point x="98" y="638" type="curve" smooth="yes"/>
			<point x="98" y="655"/>
			<point x="112" y="668"/>
		</contour>
	</outline>
</glyph>
<glyph name="Z.alt2" format="2">
	<advance width="636"/>
	<outline>
		<contour>
			<point x="157" y="668" type="curve" smooth="yes"/>
			<point x="214" y="681"/>
			<point x="267" y="690"/>
			<point x="320" y="690" type="curve" smooth="yes"/>
			<point x="484" y="690"/>
			<point x="522" y="624"/>
			<point x="522" y="548" type="curve" smooth="yes"/>
			<point x="522" y="483"/>
			<point x="497" y="437"/>
			<point x="314" y="316" type="curve" smooth="yes"/>
			<point x="136" y="199"/>
			<point x="146" y="146"/>
			<point x="159" y="57" type="curve" smooth="yes"/>
			<point x="162" y="34"/>
			<point x="91" y="100"/>
			<point x="135" y="82" type="curve" smooth="yes"/>
			<point x="159" y="72"/>
			<point x="188" y="71"/>
			<point x="208" y="71" type="curve" smooth="yes"/>
			<point x="278" y="71"/>
			<point x="349" y="79"/>
			<point x="429" y="79" type="curve" smooth="yes"/>
			<point x="556" y="79"/>
			<point x="608" y="67"/>
			<point x="608" y="32" type="curve" smooth="yes"/>
			<point x="608" y="15"/>
			<point x="593" y="6"/>
			<point x="561" y="6" type="curve" smooth="yes"/>
			<point x="515" y="6"/>
			<point x="494" y="13"/>
			<point x="413" y="13" type="curve" smooth="yes"/>
			<point x="340" y="13"/>
			<point x="271" y="6"/>
			<point x="211" y="6" type="curve" smooth="yes"/>
			<point x="119" y="6"/>
			<point x="87" y="47"/>
			<point x="87" y="120" type="curve" smooth="yes"/>
			<point x="87" y="175"/>
			<point x="106" y="266"/>
			<point x="289" y="381" type="curve" smooth="yes"/>
			<point x="454" y="483"/>
			<point x="465" y="532"/>
			<point x="453" y="600" type="curve" smooth="yes"/>
			<point x="442" y="656"/>
			<point x="503" y="566"/>
			<point x="458" y="593" type="curve" smooth="yes"/>
			<point x="428" y="611"/>
			<point x="395" y="623"/>
			<point x="321" y="623" type="curve" smooth="yes"/>
			<point x="221" y="623"/>
			<point x="180" y="602"/>
			<point x="145" y="602" type="curve" smooth="yes"/>
			<point x="130" y="602"/>
			<point x="111" y="610"/>
			<point x="111" y="630" type="curve" smooth="yes"/>
			<point x="111" y="647"/>
			<point x="125" y="660"/>
		</contour>
	</outline>
</glyph>
<glyph name="at.case.alt1" format="2">
	<advance width="848"/>
	<outline>
		<contour>
			<point x="498" y="433" type="curve" smooth="yes"/>
			<point x="397" y="423"/>
			<point x="346" y="367"/>
			<point x="346" y="311" type="curve" smooth="yes"/>
			<point x="346" y="296"/>
			<point x="346" y="280"/>
			<point x="363" y="240" type="curve"/>
			<point x="325" y="283" type="line"/>
			<point x="361" y="262"/>
			<point x="375" y="259"/>
			<point x="387" y="259" type="curve" smooth="yes"/>
			<point x="417" y="259"/>
			<point x="431" y="275"/>
			<point x="449" y="320" type="curve" smooth="yes"/>
			<point x="476" y="390"/>
			<point x="498" y="401"/>
			<point x="526" y="401" type="curve" smooth="yes"/>
			<point x="555" y="401"/>
			<point x="582" y="389"/>
			<point x="607" y="335" type="curve" smooth="yes"/>
			<point x="635" y="275"/>
			<point x="638" y="272"/>
			<point x="657" y="272" type="curve" smooth="yes"/>
			<point x="698" y="272"/>
			<point x="710" y="333"/>
			<point x="710" y="382" type="curve" smooth="yes"/>
			<point x="710" y="492"/>
			<point x="647" y="644"/>
			<point x="459" y="644" type="curve" smooth="yes"/>
			<point x="294" y="644"/>
			<point x="138" y="484"/>
			<point x="138" y="323" type="curve" smooth="yes"/>
			<point x="138" y="144"/>
			<point x="287" y="58"/>
			<point x="447" y="58" type="curve" smooth="yes"/>
			<point x="637" y="58"/>
			<point x="648" y="113"/>
			<point x="684" y="113" type="curve" smooth="yes"/>
			<point x="703" y="113"/>
			<point x="711" y="100"/>
			<point x="711" y="80" type="curve" smooth="yes"/>
			<point x="711" y="65"/>
			<point x="704" y="52"/>
			<point x="685" y="38" type="curve" smooth="yes"/>
			<point x="646" y="9"/>
			<point x="582" y="-10"/>
			<point x="447" y="-10" type="curve" smooth="yes"/>
			<point x="245" y="-10"/>
			<point x="70" y="104"/>
			<point x="70" y="323" type="curve"/>
			<point x="70" y="518"/>
			<point x="258" y="712"/>
			<point x="459" y="712" type="curve" smooth="yes"/>
			<point x="693" y="712"/>
			<point x="778" y="522"/>
			<point x="778" y="382" type="curve" smooth="yes"/>
			<point x="778" y="251"/>
			<point x="715" y="204"/>
			<point x="657" y="204" type="curve" smooth="yes"/>
			<point x="547" y="204"/>
			<point x="570" y="323"/>
			<point x="510" y="348" type="curve"/>
			<point x="535" y="348" type="line"/>
			<point x="499" y="311"/>
			<point x="494" y="193"/>
			<point x="389" y="193" type="curve" smooth="yes"/>
			<point x="331" y="193"/>
			<point x="278" y="230"/>
			<point x="278" y="311" type="curve" smooth="yes"/>
			<point x="278" y="416"/>
			<point x="390" y="501"/>
			<point x="495" y="501" type="curve" smooth="yes"/>
			<point x="516" y="501"/>
			<point x="529" y="489"/>
			<point x="529" y="470" type="curve" smooth="yes"/>
			<point x="529" y="450"/>
			<point x="517" y="435"/>
		</contour>
	</outline>
</glyph>
<glyph name="bracketleft.alt2" format="2">
	<advance width="492"/>
	<outline>
		<contour>
			<point x="387" y="748" type="curve" smooth="yes"/>
			<point x="319" y="748"/>
			<point x="214" y="732"/>
			<point x="163" y="734" type="curve"/>
			<point x="203" y="764" type="line"/>
			<point x="182" y="628"/>
			<point x="202" y="351"/>
			<point x="196" y="238" type="curve" smooth="yes"/>
			<point x="191" y="133"/>
			<point x="176" y="-83"/>
			<point x="225" y="-211" type="curve"/>
			<point x="183" y="-196" type="line"/>
			<point x="222" y="-183"/>
			<point x="288" y="-191"/>
			<point x="350" y="-191" type="curve" smooth="yes"/>
			<point x="382" y="-191"/>
			<point x="419" y="-185"/>
			<point x="434" y="-185" type="curve" smooth="yes"/>
			<point x="451" y="-185"/>
			<point x="460" y="-198"/>
			<point x="460" y="-213" type="curve" smooth="yes"/>
			<point x="460" y="-248"/>
			<point x="427" y="-259"/>
			<point x="367" y="-259" type="curve" smooth="yes"/>
			<point x="333" y="-259"/>
			<point x="296" y="-256"/>
			<point x="264" y="-256" type="curve" smooth="yes"/>
			<point x="235" y="-256"/>
			<point x="213" y="-264"/>
			<point x="193" y="-264" type="curve" smooth="yes"/>
			<point x="178" y="-264"/>
			<point x="169" y="-256"/>
			<point x="163" y="-245" type="curve" smooth="yes"/>
			<point x="98" y="-123"/>
			<point x="121" y="127"/>
			<point x="126" y="242" type="curve" smooth="yes"/>
			<point x="132" y="356"/>
			<point x="113" y="637"/>
			<point x="133" y="774" type="curve" smooth="yes"/>
			<point x="136" y="793"/>
			<point x="154" y="804"/>
			<point x="173" y="804" type="curve" smooth="yes"/>
			<point x="221" y="804"/>
			<point x="326" y="817"/>
			<point x="397" y="817" type="curve" smooth="yes"/>
			<point x="436" y="817"/>
			<point x="462" y="813"/>
			<point x="462" y="786" type="curve" smooth="yes"/>
			<point x="462" y="764"/>
			<point x="443" y="746"/>
			<point x="422" y="746" type="curve" smooth="yes"/>
			<point x="408" y="746"/>
			<point x="400" y="748"/>
		</contour>
	</outline>
</glyph>
<glyph name="c.alt2" format="2">
	<advance width="482"/>
	<outline>
		<contour>
			<point x="437" y="114" type="curve" smooth="yes"/>
			<point x="437" y="136"/>
			<point x="430" y="144"/>
			<point x="416" y="144" type="curve" smooth="yes"/>
			<point x="388" y="144"/>
			<point x="394" y="76"/>
			<point x="275" y="76" type="curve" smooth="yes"/>
			<point x="199" y="76"/>
			<point x="144" y="128"/>
			<point x="144" y="211" type="curve" smooth="yes"/>
			<point x="144" y="309"/>
			<point x="212" y="401"/>
			<point x="305" y="401" type="curve" smooth="yes"/>
			<point x="334" y="401"/>
			<point x="335" y="388"/>
			<point x="356" y="388" type="curve" smooth="yes"/>
			<point x="373" y="388"/>
			<point x="382" y="401"/>
			<point x="382" y="418" type="curve" smooth="yes"/>
			<point x="382" y="460"/>
			<point x="348" y="469"/>
			<point x="315" y="469" type="curve" smooth="yes"/>
			<point x="185" y="469"/>
			<point x="76" y="359"/>
			<point x="76" y="220" type="curve" smooth="yes"/>
			<point x="76" y="96"/>
			<point x="157" y="11"/>
			<point x="277" y="11" type="curve" smooth="yes"/>
			<point x="365" y="11"/>
			<point x="437" y="53"/>
		</contour>
	</outline>
</glyph>
<glyph name="dagger.alt2" format="2">
	<advance width="538"/>
	<outline>
		<contour>
			<point x="317" y="653" type="curve" smooth="yes"/>
			<point x="317" y="543"/>
			<point x="305" y="412"/>
			<point x="305" y="207" type="curve" smooth="yes"/>
			<point x="305" y="-49"/>
			<point x="320" y="-82"/>
			<point x="320" y="-215" type="curve" smooth="yes"/>
			<point x="320" y="-250"/>
			<point x="302" y="-260"/>
			<point x="289" y="-260" type="curve" smooth="yes"/>
			<point x="274" y="-260"/>
			<point x="262" y="-246"/>
			<point x="259" y="-224" type="curve" smooth="yes"/>
			<point x="234" y="-41"/>
			<point x="237" y="77"/>
			<point x="237" y="221" type="curve" smooth="yes"/>
			<point x="237" y="421"/>
			<point x="249" y="570"/>
			<point x="249" y="675" type="curve" smooth="yes"/>
			<point x="249" y="694"/>
			<point x="259" y="712"/>
			<point x="277" y="712" type="curve" smooth="yes"/>
			<point x="297" y="712"/>
			<point x="317" y="691"/>
		</contour>
		<contour>
			<point x="86" y="387" type="curve" smooth="yes"/>
			<point x="57" y="379"/>
			<point x="41" y="395"/>
			<point x="41" y="414" type="curve" smooth="yes"/>
			<point x="42" y="438"/>
			<point x="50" y="453"/>
			<point x="102" y="461" type="curve" smooth="yes"/>
			<point x="216" y="481"/>
			<point x="354" y="495"/>
			<point x="462" y="495" type="curve" smooth="yes"/>
			<point x="488" y="495"/>
			<point x="509" y="479"/>
			<point x="509" y="460" type="curve" smooth="yes"/>
			<point x="509" y="441"/>
			<point x="499" y="434"/>
			<point x="474" y="432" type="curve" smooth="yes"/>
			<point x="299" y="418"/>
			<point x="197" y="412"/>
		</contour>
	</outline>
</glyph>
<glyph name="e.alt1" format="2">
	<advance width="537"/>
	<outline>
		<contour>
			<point x="192" y="173" type="curve" smooth="yes"/>
			<point x="342" y="173"/>
			<point x="452" y="242"/>
			<point x="452" y="356" type="curve" smooth="yes"/>
			<point x="452" y="455"/>
			<point x="391" y="508"/>
			<point x="303" y="508" type="curve" smooth="yes"/>
			<point x="141" y="508"/>
			<point x="38" y="348"/>
			<point x="38" y="207" type="curve" smooth="yes"/>
			<point x="38" y="74"/>
			<point x="102" y="-22"/>
			<point x="249" y="-22" type="curve" smooth="yes"/>
			<point x="369" y="-22"/>
			<point x="487" y="56"/>
			<point x="487" y="106" type="curve" smooth="yes"/>
			<point x="487" y="126"/>
			<point x="483" y="135"/>
			<point x="468" y="135" type="curve" smooth="yes"/>
			<point x="433" y="135"/>
			<point x="391" y="43"/>
			<point x="246" y="43" type="curve" smooth="yes"/>
			<point x="143" y="43"/>
			<point x="105" y="113"/>
			<point x="105" y="198" type="curve" smooth="yes"/>
			<point x="105" y="325"/>
			<point x="187" y="442"/>
			<point x="300" y="442" type="curve" smooth="yes"/>
			<point x="363" y="442"/>
			<point x="387" y="414"/>
			<point x="387" y="360" type="curve" smooth="yes"/>
			<point x="387" y="283"/>
			<point x="318" y="238"/>
			<point x="188" y="238" type="curve" smooth="yes"/>
			<point x="153" y="238"/>
			<point x="132" y="246"/>
			<point x="115" y="246" type="curve" smooth="yes"/>
			<point x="96" y="246"/>
			<point x="90" y="239"/>
			<point x="90" y="224" type="curve" smooth="yes"/>
			<point x="90" y="199"/>
			<point x="116" y="173"/>
		</contour>
	</outline>
</glyph>
<glyph name="eight.alt1" format="2">
	<advance width="700"/>
	<outline>
		<contour>
			<point x="455" y="646" type="curve" smooth="yes"/>
			<point x="265" y="650"/>
			<point x="173" y="616"/>
			<point x="173" y="542" type="curve" smooth="yes"/>
			<point x="173" y="502"/>
			<point x="192" y="469"/>
			<point x="372" y="404" type="curve" smooth="yes"/>
			<point x="567" y="332"/>
			<point x="583" y="262"/>
			<point x="583" y="190" type="curve" smooth="yes"/>
			<point x="583" y="87"/>
			<point x="500" y="-12"/>
			<point x="293" y="-12" type="curve" smooth="yes"/>
			<point x="168" y="-12"/>
			<point x="127" y="53"/>
			<point x="128" y="130" type="curve" smooth="yes"/>
			<point x="129" y="196"/>
			<point x="145" y="261"/>
			<point x="335" y="390" type="curve" smooth="yes"/>
			<point x="430" y="453"/>
			<point x="481" y="514"/>
			<point x="502" y="608" type="curve" smooth="yes"/>
			<point x="509" y="638"/>
			<point x="516" y="650"/>
			<point x="533" y="650" type="curve" smooth="yes"/>
			<point x="551" y="650"/>
			<point x="566" y="633"/>
			<point x="566" y="612" type="curve" smooth="yes"/>
			<point x="566" y="537"/>
			<point x="514" y="427"/>
			<point x="382" y="340" type="curve" smooth="yes"/>
			<point x="235" y="245"/>
			<point x="193" y="185"/>
			<point x="193" y="128" type="curve" smooth="yes"/>
			<point x="193" y="97"/>
			<point x="199" y="65"/>
			<point x="218" y="37" type="curve"/>
			<point x="179" y="84" type="line"/>
			<point x="209" y="63"/>
			<point x="248" y="53"/>
			<point x="287" y="53" type="curve" smooth="yes"/>
			<point x="411" y="53"/>
			<point x="516" y="99"/>
			<point x="516" y="192" type="curve" smooth="yes"/>
			<point x="516" y="253"/>
			<point x="481" y="294"/>
			<point x="347" y="342" type="curve" smooth="yes"/>
			<point x="134" y="417"/>
			<point x="105" y="472"/>
			<point x="106" y="544" type="curve" smooth="yes"/>
			<point x="108" y="649"/>
			<point x="202" y="711"/>
			<point x="414" y="711" type="curve" smooth="yes"/>
			<point x="464" y="711"/>
			<point x="486" y="690"/>
			<point x="486" y="669" type="curve" smooth="yes"/>
			<point x="486" y="656"/>
			<point x="471" y="645"/>
		</contour>
	</outline>
</glyph>
<glyph name="eight.alt2" format="2">
	<advance width="700"/>
	<outline>
		<contour>
			<point x="464" y="646" type="curve" smooth="yes"/>
			<point x="277" y="650"/>
			<point x="186" y="615"/>
			<point x="186" y="538" type="curve" smooth="yes"/>
			<point x="186" y="499"/>
			<point x="203" y="466"/>
			<point x="369" y="404" type="curve" smooth="yes"/>
			<point x="554" y="337"/>
			<point x="573" y="262"/>
			<point x="573" y="190" type="curve" smooth="yes"/>
			<point x="573" y="87"/>
			<point x="494" y="-12"/>
			<point x="310" y="-12" type="curve" smooth="yes"/>
			<point x="174" y="-12"/>
			<point x="133" y="55"/>
			<point x="134" y="134" type="curve" smooth="yes"/>
			<point x="135" y="200"/>
			<point x="154" y="267"/>
			<point x="337" y="390" type="curve" smooth="yes"/>
			<point x="426" y="451"/>
			<point x="475" y="517"/>
			<point x="491" y="614" type="curve" smooth="yes"/>
			<point x="496" y="644"/>
			<point x="503" y="656"/>
			<point x="520" y="656" type="curve" smooth="yes"/>
			<point x="539" y="656"/>
			<point x="555" y="639"/>
			<point x="555" y="616" type="curve" smooth="yes"/>
			<point x="555" y="540"/>
			<point x="509" y="424"/>
			<point x="383" y="341" type="curve" smooth="yes"/>
			<point x="241" y="249"/>
			<point x="200" y="187"/>
			<point x="200" y="132" type="curve" smooth="yes"/>
			<point x="200" y="100"/>
			<point x="206" y="65"/>
			<point x="224" y="37" type="curve"/>
			<point x="185" y="84" type="line"/>
			<point x="215" y="63"/>
			<point x="254" y="53"/>
			<point x="298" y="53" type="curve" smooth="yes"/>
			<point x="409" y="53"/>
			<point x="506" y="99"/>
			<point x="506" y="192" type="curve" smooth="yes"/>
			<point x="506" y="253"/>
			<point x="471" y="298"/>
			<point x="345" y="343" type="curve" smooth="yes"/>
			<point x="145" y="414"/>
			<point x="118" y="470"/>
			<point x="119" y="540" type="curve" smooth="yes"/>
			<point x="121" y="648"/>
			<point x="214" y="711"/>
			<point x="423" y="711" type="curve" smooth="yes"/>
			<point x="473" y="711"/>
			<point x="495" y="690"/>
			<point x="495" y="669" type="curve" smooth="yes"/>
			<point x="495" y="656"/>
			<point x="480" y="645"/>
		</contour>
	</outline>
</glyph>
<glyph name="five.alt1" format="2">
	<advance width="700"/>
	<outline>
		<contour>
			<point x="551" y="663" type="curve" smooth="yes"/>
			<point x="407" y="663"/>
			<point x="341" y="639"/>
			<point x="170" y="642" type="curve"/>
			<point x="236" y="673" type="line"/>
			<point x="212" y="627"/>
			<point x="184" y="541"/>
			<point x="184" y="489" type="curve" smooth="yes"/>
			<point x="184" y="457"/>
			<point x="190" y="452"/>
			<point x="381" y="412" type="curve" smooth="yes"/>
			<point x="567" y="374"/>
			<point x="611" y="315"/>
			<point x="611" y="236" type="curve" smooth="yes"/>
			<point x="611" y="94"/>
			<point x="469" y="-21"/>
			<point x="252" y="-21" type="curve" smooth="yes"/>
			<point x="158" y="-21"/>
			<point x="115" y="19"/>
			<point x="115" y="78" type="curve" smooth="yes"/>
			<point x="115" y="99"/>
			<point x="124" y="115"/>
			<point x="142" y="115" type="curve" smooth="yes"/>
			<point x="174" y="115"/>
			<point x="167" y="44"/>
			<point x="239" y="44" type="curve" smooth="yes"/>
			<point x="411" y="44"/>
			<point x="544" y="114"/>
			<point x="544" y="232" type="curve" smooth="yes"/>
			<point x="544" y="301"/>
			<point x="459" y="330"/>
			<point x="345" y="354" type="curve" smooth="yes"/>
			<point x="132" y="398"/>
			<point x="117" y="414"/>
			<point x="117" y="483" type="curve" smooth="yes"/>
			<point x="117" y="522"/>
			<point x="125" y="575"/>
			<point x="147" y="648" type="curve" smooth="yes"/>
			<point x="160" y="690"/>
			<point x="183" y="707"/>
			<point x="210" y="707" type="curve" smooth="yes"/>
			<point x="358" y="704"/>
			<point x="414" y="728"/>
			<point x="525" y="728" type="curve" smooth="yes"/>
			<point x="572" y="728"/>
			<point x="596" y="708"/>
			<point x="595" y="687" type="curve" smooth="yes"/>
			<point x="594" y="672"/>
			<point x="577" y="663"/>
		</contour>
	</outline>
</glyph>
<glyph name="four.alt1" format="2">
	<advance width="700"/>
	<outline>
		<contour>
			<point x="388" y="157" type="curve" smooth="yes"/>
			<point x="388" y="290"/>
			<point x="435" y="421"/>
			<point x="435" y="584" type="curve" smooth="yes"/>
			<point x="435" y="637"/>
			<point x="430" y="673"/>
			<point x="420" y="703" type="curve"/>
			<point x="448" y="700" type="line"/>
			<point x="295" y="608"/>
			<point x="160" y="420"/>
			<point x="105" y="214" type="curve"/>
			<point x="81" y="252" type="line"/>
			<point x="116" y="237"/>
			<point x="123" y="236"/>
			<point x="142" y="236" type="curve" smooth="yes"/>
			<point x="283" y="236"/>
			<point x="399" y="287"/>
			<point x="591" y="287" type="curve" smooth="yes"/>
			<point x="638" y="287"/>
			<point x="664" y="271"/>
			<point x="664" y="249" type="curve" smooth="yes"/>
			<point x="664" y="233"/>
			<point x="650" y="222"/>
			<point x="617" y="222" type="curve" smooth="yes"/>
			<point x="413" y="222"/>
			<point x="296" y="170"/>
			<point x="135" y="170" type="curve" smooth="yes"/>
			<point x="83" y="170"/>
			<point x="50" y="199"/>
			<point x="50" y="242" type="curve" smooth="yes"/>
			<point x="50" y="267"/>
			<point x="56" y="286"/>
			<point x="74" y="329" type="curve" smooth="yes"/>
			<point x="169" y="566"/>
			<point x="353" y="756"/>
			<point x="448" y="756" type="curve" smooth="yes"/>
			<point x="488" y="756"/>
			<point x="502" y="704"/>
			<point x="502" y="586" type="curve" smooth="yes"/>
			<point x="502" y="429"/>
			<point x="455" y="314"/>
			<point x="455" y="148" type="curve" smooth="yes"/>
			<point x="455" y="76"/>
			<point x="465" y="45"/>
			<point x="465" y="5" type="curve" smooth="yes"/>
			<point x="465" y="-23"/>
			<point x="453" y="-39"/>
			<point x="435" y="-39" type="curve" smooth="yes"/>
			<point x="401" y="-39"/>
			<point x="388" y="19"/>
		</contour>
	</outline>
</glyph>
<glyph name="g.alt2" format="2">
	<advance width="600"/>
	<outline>
		<contour>
			<point x="435" y="463" type="curve" smooth="yes"/>
			<point x="466" y="463"/>
			<point x="481" y="428"/>
			<point x="484" y="390" type="curve" smooth="yes"/>
			<point x="498" y="221"/>
			<point x="557" y="142"/>
			<point x="557" y="-59" type="curve" smooth="yes"/>
			<point x="557" y="-184"/>
			<point x="491" y="-260"/>
			<point x="375" y="-260" type="curve" smooth="yes"/>
			<point x="180" y="-260"/>
			<point x="102" y="-149"/>
			<point x="102" y="-71" type="curve" smooth="yes"/>
			<point x="102" y="-43"/>
			<point x="120" y="-19"/>
			<point x="142" y="-19" type="curve" smooth="yes"/>
			<point x="160" y="-19"/>
			<point x="168" y="-30"/>
			<point x="168" y="-51" type="curve" smooth="yes"/>
			<point x="168" y="-138"/>
			<point x="256" y="-196"/>
			<point x="367" y="-196" type="curve" smooth="yes"/>
			<point x="462" y="-196"/>
			<point x="490" y="-143"/>
			<point x="490" y="-48" type="curve" smooth="yes"/>
			<point x="490" y="112"/>
			<point x="431" y="208"/>
			<point x="419" y="328" type="curve"/>
			<point x="451" y="317" type="line"/>
			<point x="431" y="163"/>
			<point x="348" y="91"/>
			<point x="232" y="91" type="curve" smooth="yes"/>
			<point x="113" y="91"/>
			<point x="38" y="151"/>
			<point x="38" y="267" type="curve" smooth="yes"/>
			<point x="38" y="386"/>
			<point x="152" y="494"/>
			<point x="278" y="494" type="curve" smooth="yes"/>
			<point x="380" y="494"/>
			<point x="415" y="444"/>
			<point x="415" y="397" type="curve" smooth="yes"/>
			<point x="415" y="384"/>
			<point x="404" y="363"/>
			<point x="391" y="363" type="curve" smooth="yes"/>
			<point x="349" y="363"/>
			<point x="366" y="428"/>
			<point x="289" y="428" type="curve" smooth="yes"/>
			<point x="187" y="428"/>
			<point x="106" y="348"/>
			<point x="106" y="262" type="curve" smooth="yes"/>
			<point x="106" y="192"/>
			<point x="145" y="154"/>
			<point x="231" y="154" type="curve" smooth="yes"/>
			<point x="326" y="154"/>
			<point x="402" y="225"/>
			<point x="402" y="424" type="curve" smooth="yes"/>
			<point x="402" y="451"/>
			<point x="410" y="463"/>
		</contour>
	</outline>
</glyph>
<glyph name="m.alt1" format="2">
	<advance width="867"/>
	<outline>
		<contour>
			<point x="154" y="319" type="curve" smooth="yes"/>
			<point x="154" y="194"/>
			<point x="118" y="207"/>
			<point x="142" y="302" type="curve" smooth="yes"/>
			<point x="175" y="431"/>
			<point x="218" y="479"/>
			<point x="271" y="479" type="curve" smooth="yes"/>
			<point x="341" y="479"/>
			<point x="376" y="377"/>
			<point x="399" y="221" type="curve" smooth="yes"/>
			<point x="411" y="134"/>
			<point x="422" y="102"/>
			<point x="437" y="79" type="curve" smooth="yes"/>
			<point x="462" y="41"/>
			<point x="400" y="39"/>
			<point x="410" y="83" type="curve" smooth="yes"/>
			<point x="461" y="313"/>
			<point x="548" y="479"/>
			<point x="634" y="479" type="curve" smooth="yes"/>
			<point x="708" y="479"/>
			<point x="736" y="408"/>
			<point x="751" y="253" type="curve" smooth="yes"/>
			<point x="768" y="76"/>
			<point x="799" y="78"/>
			<point x="799" y="33" type="curve" smooth="yes"/>
			<point x="799" y="11"/>
			<point x="783" y="6"/>
			<point x="765" y="6" type="curve" smooth="yes"/>
			<point x="727" y="6"/>
			<point x="704" y="72"/>
			<point x="687" y="221" type="curve" smooth="yes"/>
			<point x="669" y="381"/>
			<point x="659" y="397"/>
			<point x="625" y="425" type="curve" smooth="yes"/>
			<point x="600" y="445"/>
			<point x="670" y="457"/>
			<point x="643" y="432" type="curve" smooth="yes"/>
			<point x="553" y="351"/>
			<point x="515" y="217"/>
			<point x="466" y="43" type="curve" smooth="yes"/>
			<point x="459" y="19"/>
			<point x="441" y="6"/>
			<point x="423" y="6" type="curve" smooth="yes"/>
			<point x="376" y="6"/>
			<point x="352" y="81"/>
			<point x="334" y="201" type="curve" smooth="yes"/>
			<point x="315" y="324"/>
			<point x="300" y="392"/>
			<point x="254" y="424" type="curve" smooth="yes"/>
			<point x="231" y="442"/>
			<point x="313" y="441"/>
			<point x="281" y="421" type="curve" smooth="yes"/>
			<point x="197" y="366"/>
			<point x="167" y="182"/>
			<point x="154" y="46" type="curve" smooth="yes"/>
			<point x="151" y="13"/>
			<point x="137" y="6"/>
			<point x="122" y="6" type="curve" smooth="yes"/>
			<point x="93" y="6"/>
			<point x="84" y="57"/>
			<point x="84" y="110" type="curve" smooth="yes"/>
			<point x="84" y="176"/>
			<point x="93" y="248"/>
			<point x="93" y="313" type="curve" smooth="yes"/>
			<point x="93" y="348"/>
			<point x="83" y="378"/>
			<point x="83" y="409" type="curve" smooth="yes"/>
			<point x="83" y="421"/>
			<point x="95" y="431"/>
			<point x="111" y="431" type="curve" smooth="yes"/>
			<point x="144" y="431"/>
			<point x="154" y="391"/>
		</contour>
	</outline>
</glyph>
<glyph name="n.alt2" format="2">
	<advance width="612"/>
	<outline>
		<contour>
			<point x="521" y="-17" type="curve" smooth="yes"/>
			<point x="546" y="-17"/>
			<point x="556" y="1"/>
			<point x="556" y="16" type="curve" smooth="yes"/>
			<point x="556" y="32"/>
			<point x="552" y="39"/>
			<point x="542" y="47" type="curve" smooth="yes"/>
			<point x="497" y="85"/>
			<point x="494" y="189"/>
			<point x="494" y="349" type="curve" smooth="yes"/>
			<point x="494" y="439"/>
			<point x="456" y="503"/>
			<point x="399" y="503" type="curve" smooth="yes"/>
			<point x="302" y="503"/>
			<point x="198" y="348"/>
			<point x="131" y="73" type="curve"/>
			<point x="143" y="81" type="line"/>
			<point x="133" y="242"/>
			<point x="169" y="299"/>
			<point x="169" y="389" type="curve" smooth="yes"/>
			<point x="169" y="438"/>
			<point x="146" y="455"/>
			<point x="129" y="455" type="curve" smooth="yes"/>
			<point x="112" y="455"/>
			<point x="102" y="442"/>
			<point x="102" y="425" type="curve" smooth="yes"/>
			<point x="102" y="300"/>
			<point x="75" y="273"/>
			<point x="75" y="151" type="curve" smooth="yes"/>
			<point x="75" y="58"/>
			<point x="99" y="-9"/>
			<point x="145" y="-9" type="curve" smooth="yes"/>
			<point x="170" y="-9"/>
			<point x="184" y="12"/>
			<point x="197" y="68" type="curve" smooth="yes"/>
			<point x="244" y="263"/>
			<point x="345" y="436"/>
			<point x="393" y="436" type="curve" smooth="yes"/>
			<point x="416" y="436"/>
			<point x="427" y="425"/>
			<point x="443" y="403" type="curve"/>
			<point x="441" y="449"/>
			<point x="418" y="469"/>
			<point x="374" y="465" type="curve"/>
			<point x="414" y="434"/>
			<point x="426" y="422"/>
			<point x="426" y="272" type="curve" smooth="yes"/>
			<point x="426" y="71"/>
			<point x="457" y="-17"/>
		</contour>
	</outline>
</glyph>
<glyph name="nine.alt1" format="2">
	<advance width="700"/>
	<outline>
		<contour>
			<point x="496" y="577" type="curve" smooth="yes"/>
			<point x="510" y="577"/>
			<point x="517" y="597"/>
			<point x="517" y="617" type="curve" smooth="yes"/>
			<point x="517" y="667"/>
			<point x="462" y="698"/>
			<point x="369" y="698" type="curve" smooth="yes"/>
			<point x="198" y="698"/>
			<point x="92" y="572"/>
			<point x="92" y="450" type="curve" smooth="yes"/>
			<point x="92" y="347"/>
			<point x="150" y="276"/>
			<point x="277" y="276" type="curve" smooth="yes"/>
			<point x="389" y="276"/>
			<point x="503" y="339"/>
			<point x="537" y="451" type="curve"/>
			<point x="513" y="447" type="line"/>
			<point x="513" y="276"/>
			<point x="504" y="142"/>
			<point x="519" y="46" type="curve" smooth="yes"/>
			<point x="524" y="17"/>
			<point x="540" y="-1"/>
			<point x="567" y="-1" type="curve" smooth="yes"/>
			<point x="582" y="-1"/>
			<point x="590" y="10"/>
			<point x="590" y="29" type="curve" smooth="yes"/>
			<point x="590" y="75"/>
			<point x="578" y="121"/>
			<point x="578" y="268" type="curve" smooth="yes"/>
			<point x="578" y="308"/>
			<point x="575" y="407"/>
			<point x="576" y="517" type="curve"/>
			<point x="595" y="619"/>
			<point x="571" y="645"/>
			<point x="532" y="645" type="curve" smooth="yes"/>
			<point x="515" y="645"/>
			<point x="504" y="627"/>
			<point x="504" y="592" type="curve" smooth="yes"/>
			<point x="504" y="415"/>
			<point x="392" y="341"/>
			<point x="277" y="341" type="curve" smooth="yes"/>
			<point x="202" y="341"/>
			<point x="159" y="378"/>
			<point x="159" y="450" type="curve" smooth="yes"/>
			<point x="159" y="555"/>
			<point x="248" y="633"/>
			<point x="369" y="633" type="curve" smooth="yes"/>
			<point x="474" y="633"/>
			<point x="460" y="577"/>
		</contour>
	</outline>
</glyph>
<glyph name="o.alt2" format="2">
	<advance width="600"/>
	<outline>
		<contour>
			<point x="315" y="1" type="curve" smooth="yes"/>
			<point x="440" y="1"/>
			<point x="535" y="103"/>
			<point x="535" y="239" type="curve" smooth="yes"/>
			<point x="535" y="388"/>
			<point x="453" y="481"/>
			<point x="321" y="481" type="curve" smooth="yes"/>
			<point x="234" y="481"/>
			<point x="152" y="404"/>
			<point x="152" y="350" type="curve" smooth="yes"/>
			<point x="152" y="330"/>
			<point x="160" y="321"/>
			<point x="178" y="321" type="curve" smooth="yes"/>
			<point x="204" y="321"/>
			<point x="202" y="345"/>
			<point x="234" y="377" type="curve" smooth="yes"/>
			<point x="259" y="402"/>
			<point x="284" y="416"/>
			<point x="329" y="416" type="curve" smooth="yes"/>
			<point x="415" y="416"/>
			<point x="467" y="352"/>
			<point x="467" y="245" type="curve" smooth="yes"/>
			<point x="467" y="137"/>
			<point x="407" y="67"/>
			<point x="312" y="67" type="curve" smooth="yes"/>
			<point x="206" y="67"/>
			<point x="139" y="137"/>
			<point x="139" y="246" type="curve" smooth="yes"/>
			<point x="139" y="320"/>
			<point x="183" y="369"/>
			<point x="229" y="399" type="curve" smooth="yes"/>
			<point x="252" y="414"/>
			<point x="260" y="425"/>
			<point x="260" y="445" type="curve" smooth="yes"/>
			<point x="260" y="461"/>
			<point x="250" y="466"/>
			<point x="235" y="466" type="curve" smooth="yes"/>
			<point x="190" y="466"/>
			<point x="72" y="379"/>
			<point x="72" y="239" type="curve" smooth="yes"/>
			<point x="72" y="101"/>
			<point x="173" y="1"/>
		</contour>
	</outline>
</glyph>
<glyph name="p.alt2" format="2">
	<advance width="550"/>
	<outline>
		<contour>
			<point x="131" y="364" type="curve" smooth="yes"/>
			<point x="131" y="211"/>
			<point x="187" y="94"/>
			<point x="187" y="-46" type="curve" smooth="yes"/>
			<point x="187" y="-186"/>
			<point x="157" y="-261"/>
			<point x="113" y="-261" type="curve" smooth="yes"/>
			<point x="93" y="-261"/>
			<point x="84" y="-254"/>
			<point x="84" y="-233" type="curve" smooth="yes"/>
			<point x="84" y="-200"/>
			<point x="119" y="-181"/>
			<point x="119" y="-50" type="curve" smooth="yes"/>
			<point x="119" y="87"/>
			<point x="61" y="236"/>
			<point x="61" y="386" type="curve" smooth="yes"/>
			<point x="61" y="421"/>
			<point x="72" y="436"/>
			<point x="94" y="436" type="curve" smooth="yes"/>
			<point x="118" y="436"/>
			<point x="131" y="403"/>
		</contour>
		<contour>
			<point x="189" y="474" type="curve" smooth="yes"/>
			<point x="366" y="474"/>
			<point x="499" y="369"/>
			<point x="499" y="204" type="curve" smooth="yes"/>
			<point x="499" y="88"/>
			<point x="412" y="23"/>
			<point x="294" y="23" type="curve" smooth="yes"/>
			<point x="204" y="23"/>
			<point x="136" y="62"/>
			<point x="136" y="100" type="curve" smooth="yes"/>
			<point x="136" y="114"/>
			<point x="140" y="125"/>
			<point x="156" y="125" type="curve" smooth="yes"/>
			<point x="180" y="125"/>
			<point x="183" y="89"/>
			<point x="289" y="89" type="curve" smooth="yes"/>
			<point x="373" y="89"/>
			<point x="431" y="122"/>
			<point x="431" y="210" type="curve" smooth="yes"/>
			<point x="431" y="328"/>
			<point x="331" y="409"/>
			<point x="196" y="409" type="curve" smooth="yes"/>
			<point x="161" y="409"/>
			<point x="124" y="398"/>
			<point x="104" y="398" type="curve" smooth="yes"/>
			<point x="85" y="398"/>
			<point x="76" y="412"/>
			<point x="76" y="427" type="curve" smooth="yes"/>
			<point x="76" y="453"/>
			<point x="107" y="474"/>
		</contour>
	</outline>
</glyph>
<glyph name="r.alt2" format="2">
	<advance width="468"/>
	<outline>
		<contour>
			<point x="153" y="-12" type="curve" smooth="yes"/>
			<point x="181" y="-12"/>
			<point x="189" y="4"/>
			<point x="193" y="63" type="curve" smooth="yes"/>
			<point x="208" y="261"/>
			<point x="262" y="397"/>
			<point x="383" y="437" type="curve" smooth="yes"/>
			<point x="402" y="443"/>
			<point x="411" y="455"/>
			<point x="411" y="469" type="curve" smooth="yes"/>
			<point x="411" y="484"/>
			<point x="403" y="497"/>
			<point x="377" y="497" type="curve" smooth="yes"/>
			<point x="294" y="497"/>
			<point x="157" y="386"/>
			<point x="146" y="126" type="curve"/>
			<point x="169" y="84" type="line"/>
			<point x="180" y="370"/>
			<point x="153" y="440"/>
			<point x="115" y="440" type="curve" smooth="yes"/>
			<point x="94" y="440"/>
			<point x="83" y="424"/>
			<point x="83" y="402" type="curve" smooth="yes"/>
			<point x="83" y="384"/>
			<point x="85" y="371"/>
			<point x="93" y="340" type="curve" smooth="yes"/>
			<point x="108" y="280"/>
			<point x="115" y="157"/>
			<point x="115" y="47" type="curve" smooth="yes"/>
			<point x="115" y="15"/>
			<point x="133" y="-12"/>
		</contour>
	</outline>
</glyph>
<glyph name="s.alt1" format="2">
	<advance width="485"/>
	<outline>
		<contour>
			<point x="176" y="-31" type="curve" smooth="yes"/>
			<point x="309" y="-31"/>
			<point x="425" y="22"/>
			<point x="425" y="126" type="curve" smooth="yes"/>
			<point x="425" y="279"/>
			<point x="145" y="252"/>
			<point x="126" y="353" type="curve"/>
			<point x="158" y="423"/>
			<point x="228" y="457"/>
			<point x="318" y="457" type="curve" smooth="yes"/>
			<point x="337" y="457"/>
			<point x="349" y="455"/>
			<point x="355" y="455" type="curve" smooth="yes"/>
			<point x="375" y="455"/>
			<point x="385" y="465"/>
			<point x="385" y="480" type="curve" smooth="yes"/>
			<point x="385" y="497"/>
			<point x="359" y="521"/>
			<point x="316" y="522" type="curve" smooth="yes"/>
			<point x="193" y="525"/>
			<point x="69" y="442"/>
			<point x="69" y="351" type="curve" smooth="yes"/>
			<point x="69" y="199"/>
			<point x="339" y="229"/>
			<point x="366" y="123" type="curve"/>
			<point x="338" y="58"/>
			<point x="268" y="34"/>
			<point x="172" y="34" type="curve" smooth="yes"/>
			<point x="97" y="34"/>
			<point x="103" y="58"/>
			<point x="81" y="58" type="curve" smooth="yes"/>
			<point x="62" y="58"/>
			<point x="52" y="45"/>
			<point x="52" y="29" type="curve" smooth="yes"/>
			<point x="52" y="1"/>
			<point x="96" y="-31"/>
		</contour>
	</outline>
</glyph>
<glyph name="s.alt2" format="2">
	<advance width="485"/>
	<outline>
		<contour>
			<point x="181" y="-53" type="curve" smooth="yes"/>
			<point x="318" y="-53"/>
			<point x="429" y="10"/>
			<point x="429" y="116" type="curve" smooth="yes"/>
			<point x="429" y="272"/>
			<point x="141" y="252"/>
			<point x="120" y="361" type="curve"/>
			<point x="154" y="444"/>
			<point x="227" y="482"/>
			<point x="322" y="482" type="curve" smooth="yes"/>
			<point x="341" y="482"/>
			<point x="353" y="480"/>
			<point x="359" y="480" type="curve" smooth="yes"/>
			<point x="379" y="480"/>
			<point x="389" y="490"/>
			<point x="389" y="504" type="curve" smooth="yes"/>
			<point x="389" y="522"/>
			<point x="363" y="546"/>
			<point x="320" y="546" type="curve" smooth="yes"/>
			<point x="190" y="550"/>
			<point x="65" y="459"/>
			<point x="65" y="357" type="curve" smooth="yes"/>
			<point x="65" y="200"/>
			<point x="340" y="226"/>
			<point x="371" y="113" type="curve"/>
			<point x="343" y="40"/>
			<point x="278" y="12"/>
			<point x="177" y="12" type="curve" smooth="yes"/>
			<point x="98" y="12"/>
			<point x="104" y="36"/>
			<point x="81" y="36" type="curve" smooth="yes"/>
			<point x="62" y="36"/>
			<point x="52" y="23"/>
			<point x="52" y="7" type="curve" smooth="yes"/>
			<point x="52" y="-21"/>
			<point x="97" y="-53"/>
		</contour>
	</outline>
</glyph>
<glyph name="semicolon.alt2" format="2">
	<advance width="320"/>
	<outline>
		<contour>
			<point x="166" y="367" type="curve" smooth="yes"/>
			<point x="207" y="367"/>
			<point x="223" y="393"/>
			<point x="223" y="418" type="curve" smooth="yes"/>
			<point x="223" y="453"/>
			<point x="198" y="496"/>
			<point x="156" y="496" type="curve" smooth="yes"/>
			<point x="125" y="496"/>
			<point x="98" y="472"/>
			<point x="98" y="438" type="curve" smooth="yes"/>
			<point x="98" y="402"/>
			<point x="129" y="367"/>
		</contour>
		<contour>
			<point x="159" y="130"/>
			<point x="139" y="147"/>
			<point x="104" y="147" type="curve" smooth="yes"/>
			<point x="83" y="147"/>
			<point x="70" y="130"/>
			<point x="70" y="96" type="curve" smooth="yes"/>
			<point x="70" y="23"/>
			<point x="57" y="-30"/>
			<point x="28" y="-84" type="curve" smooth="yes"/>
			<point x="13" y="-113"/>
			<point x="6" y="-131"/>
			<point x="6" y="-144" type="curve" smooth="yes"/>
			<point x="6" y="-158"/>
			<point x="16" y="-168"/>
			<point x="31" y="-168" type="curve" smooth="yes"/>
			<point x="49" y="-168"/>
			<point x="73" y="-156"/>
			<point x="88" y="-136" type="curve" smooth="yes"/>
			<point x="132" y="-73"/>
			<point x="159" y="22"/>
			<point x="159" y="83" type="curve" smooth="yes"/>
		</contour>
	</outline>
</glyph>
<glyph name="six.alt2" format="2">
	<advance width="700"/>
	<outline>
		<contour>
			<point x="462" y="682" type="curve" smooth="yes"/>
			<point x="257" y="532"/>
			<point x="139" y="377"/>
			<point x="139" y="219" type="curve" smooth="yes"/>
			<point x="139" y="59"/>
			<point x="228" y="6"/>
			<point x="351" y="6" type="curve" smooth="yes"/>
			<point x="458" y="6"/>
			<point x="560" y="52"/>
			<point x="560" y="180" type="curve" smooth="yes"/>
			<point x="560" y="247"/>
			<point x="512" y="322"/>
			<point x="365" y="322" type="curve" smooth="yes"/>
			<point x="226" y="322"/>
			<point x="205" y="282"/>
			<point x="165" y="282" type="curve" smooth="yes"/>
			<point x="146" y="282"/>
			<point x="141" y="289"/>
			<point x="141" y="307" type="curve" smooth="yes"/>
			<point x="141" y="339"/>
			<point x="231" y="387"/>
			<point x="369" y="387" type="curve" smooth="yes"/>
			<point x="543" y="387"/>
			<point x="628" y="290"/>
			<point x="628" y="168" type="curve" smooth="yes"/>
			<point x="628" y="55"/>
			<point x="535" y="-60"/>
			<point x="351" y="-60" type="curve" smooth="yes"/>
			<point x="159" y="-60"/>
			<point x="72" y="49"/>
			<point x="72" y="219" type="curve" smooth="yes"/>
			<point x="72" y="389"/>
			<point x="195" y="568"/>
			<point x="418" y="730" type="curve" smooth="yes"/>
			<point x="451" y="752"/>
			<point x="461" y="760"/>
			<point x="479" y="760" type="curve" smooth="yes"/>
			<point x="492" y="760"/>
			<point x="501" y="750"/>
			<point x="501" y="736" type="curve" smooth="yes"/>
			<point x="501" y="714"/>
			<point x="493" y="704"/>
		</contour>
	</outline>
</glyph>
<glyph name="t.alt1" format="2">
	<advance width="443"/>
	<outline>
		<contour>
			<point x="148" y="276" type="curve" smooth="yes"/>
			<point x="148" y="407"/>
			<point x="174" y="452"/>
			<point x="191" y="587" type="curve" smooth="yes"/>
			<point x="204" y="684"/>
			<point x="200" y="736"/>
			<point x="166" y="736" type="curve" smooth="yes"/>
			<point x="145" y="736"/>
			<point x="139" y="724"/>
			<point x="137" y="709" type="curve" smooth="yes"/>
			<point x="133" y="675"/>
			<point x="130" y="639"/>
			<point x="122" y="574" type="curve" smooth="yes"/>
			<point x="110" y="484"/>
			<point x="81" y="399"/>
			<point x="81" y="272" type="curve" smooth="yes"/>
			<point x="81" y="101"/>
			<point x="137" y="-13"/>
			<point x="291" y="-13" type="curve" smooth="yes"/>
			<point x="355" y="-13"/>
			<point x="391" y="18"/>
			<point x="391" y="49" type="curve" smooth="yes"/>
			<point x="391" y="67"/>
			<point x="385" y="76"/>
			<point x="371" y="76" type="curve" smooth="yes"/>
			<point x="344" y="76"/>
			<point x="345" y="53"/>
			<point x="288" y="53" type="curve" smooth="yes"/>
			<point x="196" y="53"/>
			<point x="148" y="109"/>
		</contour>
		<contour>
			<point x="155" y="387" type="curve" smooth="yes"/>
			<point x="214" y="409"/>
			<point x="266" y="424"/>
			<point x="356" y="431" type="curve" smooth="yes"/>
			<point x="381" y="433"/>
			<point x="391" y="440"/>
			<point x="391" y="459" type="curve" smooth="yes"/>
			<point x="391" y="478"/>
			<point x="371" y="493"/>
			<point x="344" y="493" type="curve" smooth="yes"/>
			<point x="292" y="493"/>
			<point x="221" y="479"/>
			<point x="170" y="461" type="curve" smooth="yes"/>
			<point x="119" y="443"/>
			<point x="111" y="429"/>
			<point x="111" y="405" type="curve" smooth="yes"/>
			<point x="111" y="386"/>
			<point x="125" y="375"/>
		</contour>
	</outline>
</glyph>
<glyph name="two.alt2" format="2">
	<advance width="700"/>
	<outline>
		<contour>
			<point x="143" y="665" type="curve" smooth="yes"/>
			<point x="202" y="710"/>
			<point x="289" y="746"/>
			<point x="378" y="746" type="curve" smooth="yes"/>
			<point x="524" y="746"/>
			<point x="580" y="664"/>
			<point x="580" y="545" type="curve" smooth="yes"/>
			<point x="580" y="409"/>
			<point x="501" y="218"/>
			<point x="155" y="17" type="curve"/>
			<point x="143" y="43" type="line"/>
			<point x="162" y="33"/>
			<point x="179" y="31"/>
			<point x="198" y="31" type="curve" smooth="yes"/>
			<point x="283" y="31"/>
			<point x="409" y="53"/>
			<point x="552" y="53" type="curve" smooth="yes"/>
			<point x="608" y="53"/>
			<point x="621" y="30"/>
			<point x="621" y="13" type="curve" smooth="yes"/>
			<point x="621" y="-5"/>
			<point x="608" y="-13"/>
			<point x="576" y="-13" type="curve" smooth="yes"/>
			<point x="379" y="-13"/>
			<point x="294" y="-33"/>
			<point x="194" y="-33" type="curve" smooth="yes"/>
			<point x="135" y="-33"/>
			<point x="103" y="-13"/>
			<point x="103" y="31" type="curve" smooth="yes"/>
			<point x="103" y="48"/>
			<point x="112" y="64"/>
			<point x="126" y="72" type="curve" smooth="yes"/>
			<point x="430" y="262"/>
			<point x="513" y="419"/>
			<point x="513" y="545" type="curve" smooth="yes"/>
			<point x="513" y="629"/>
			<point x="470" y="681"/>
			<point x="378" y="681" type="curve" smooth="yes"/>
			<point x="238" y="681"/>
			<point x="182" y="601"/>
			<point x="148" y="601" type="curve" smooth="yes"/>
			<point x="130" y="601"/>
			<point x="117" y="614"/>
			<point x="117" y="629" type="curve" smooth="yes"/>
			<point x="117" y="641"/>
			<point x="125" y="651"/>
		</contour>
	</outline>
</glyph>
<glyph name="u.alt2" format="2">
	<advance width="579"/>
	<outline>
		<contour>
			<point x="303" y="3" type="curve" smooth="yes"/>
			<point x="410" y="3"/>
			<point x="495" y="115"/>
			<point x="495" y="344" type="curve" smooth="yes"/>
			<point x="495" y="448"/>
			<point x="475" y="478"/>
			<point x="444" y="478" type="curve" smooth="yes"/>
			<point x="426" y="478"/>
			<point x="421" y="467"/>
			<point x="421" y="450" type="curve" smooth="yes"/>
			<point x="421" y="415"/>
			<point x="428" y="399"/>
			<point x="428" y="343" type="curve" smooth="yes"/>
			<point x="428" y="154"/>
			<point x="377" y="68"/>
			<point x="291" y="68" type="curve" smooth="yes"/>
			<point x="216" y="68"/>
			<point x="132" y="184"/>
			<point x="132" y="280" type="curve" smooth="yes"/>
			<point x="132" y="387"/>
			<point x="156" y="397"/>
			<point x="156" y="440" type="curve" smooth="yes"/>
			<point x="156" y="461"/>
			<point x="146" y="475"/>
			<point x="127" y="475" type="curve" smooth="yes"/>
			<point x="113" y="475"/>
			<point x="101" y="466"/>
			<point x="97" y="454" type="curve" smooth="yes"/>
			<point x="75" y="397"/>
			<point x="65" y="342"/>
			<point x="65" y="280" type="curve" smooth="yes"/>
			<point x="65" y="164"/>
			<point x="158" y="3"/>
		</contour>
	</outline>
</glyph>
<glyph name="v.alt1" format="2">
	<advance width="506"/>
	<outline>
		<contour>
			<point x="209" y="27" type="curve" smooth="yes"/>
			<point x="226" y="1"/>
			<point x="238" y="-10"/>
			<point x="255" y="-10" type="curve" smooth="yes"/>
			<point x="274" y="-10"/>
			<point x="283" y="-1"/>
			<point x="294" y="25" type="curve" smooth="yes"/>
			<point x="369" y="200"/>
			<point x="372" y="313"/>
			<point x="471" y="438" type="curve" smooth="yes"/>
			<point x="478" y="447"/>
			<point x="483" y="457"/>
			<point x="483" y="469" type="curve" smooth="yes"/>
			<point x="483" y="484"/>
			<point x="468" y="501"/>
			<point x="451" y="501" type="curve" smooth="yes"/>
			<point x="434" y="501"/>
			<point x="427" y="493"/>
			<point x="414" y="478" type="curve" smooth="yes"/>
			<point x="327" y="369"/>
			<point x="308" y="225"/>
			<point x="238" y="64" type="curve"/>
			<point x="268" y="67" type="line"/>
			<point x="221" y="143"/>
			<point x="192" y="267"/>
			<point x="158" y="359" type="curve" smooth="yes"/>
			<point x="134" y="422"/>
			<point x="115" y="485"/>
			<point x="64" y="485" type="curve" smooth="yes"/>
			<point x="45" y="485"/>
			<point x="35" y="475"/>
			<point x="35" y="465" type="curve" smooth="yes"/>
			<point x="35" y="431"/>
			<point x="62" y="435"/>
			<point x="117" y="279" type="curve" smooth="yes"/>
			<point x="150" y="187"/>
			<point x="179" y="75"/>
		</contour>
	</outline>
</glyph>
<glyph name="w.alt2" format="2">
	<advance width="857"/>
	<outline>
		<contour>
			<point x="107" y="414" type="curve" smooth="yes"/>
			<point x="167" y="314"/>
			<point x="174" y="159"/>
			<point x="224" y="71" type="curve" smooth="yes"/>
			<point x="241" y="42"/>
			<point x="182" y="39"/>
			<point x="204" y="68" type="curve" smooth="yes"/>
			<point x="247" y="124"/>
			<point x="281" y="282"/>
			<point x="320" y="364" type="curve" smooth="yes"/>
			<point x="354" y="440"/>
			<point x="377" y="468"/>
			<point x="411" y="468" type="curve" smooth="yes"/>
			<point x="465" y="468"/>
			<point x="492" y="424"/>
			<point x="542" y="318" type="curve" smooth="yes"/>
			<point x="572" y="251"/>
			<point x="612" y="127"/>
			<point x="668" y="76" type="curve" smooth="yes"/>
			<point x="709" y="38"/>
			<point x="637" y="26"/>
			<point x="659" y="71" type="curve" smooth="yes"/>
			<point x="708" y="159"/>
			<point x="704" y="286"/>
			<point x="737" y="382" type="curve" smooth="yes"/>
			<point x="756" y="434"/>
			<point x="784" y="470"/>
			<point x="826" y="470" type="curve" smooth="yes"/>
			<point x="842" y="470"/>
			<point x="855" y="460"/>
			<point x="855" y="448" type="curve" smooth="yes"/>
			<point x="855" y="431"/>
			<point x="847" y="415"/>
			<point x="828" y="403" type="curve" smooth="yes"/>
			<point x="786" y="375"/>
			<point x="776" y="251"/>
			<point x="760" y="170" type="curve" smooth="yes"/>
			<point x="735" y="40"/>
			<point x="718" y="9"/>
			<point x="670" y="9" type="curve" smooth="yes"/>
			<point x="634" y="9"/>
			<point x="617" y="26"/>
			<point x="577" y="83" type="curve" smooth="yes"/>
			<point x="514" y="175"/>
			<point x="474" y="351"/>
			<point x="409" y="409" type="curve" smooth="yes"/>
			<point x="374" y="438"/>
			<point x="444" y="435"/>
			<point x="421" y="410" type="curve" smooth="yes"/>
			<point x="366" y="353"/>
			<point x="339" y="200"/>
			<point x="282" y="75" type="curve" smooth="yes"/>
			<point x="257" y="23"/>
			<point x="248" y="7"/>
			<point x="206" y="7" type="curve" smooth="yes"/>
			<point x="176" y="7"/>
			<point x="155" y="33"/>
			<point x="133" y="111" type="curve" smooth="yes"/>
			<point x="107" y="202"/>
			<point x="89" y="335"/>
			<point x="26" y="417" type="curve" smooth="yes"/>
			<point x="-2" y="452"/>
			<point x="9" y="471"/>
			<point x="39" y="471" type="curve" smooth="yes"/>
			<point x="58" y="471"/>
			<point x="77" y="466"/>
		</contour>
	</outline>
</glyph>
<glyph name="y.alt1" format="2">
	<advance width="563"/>
	<outline>
		<contour>
			<point x="139" y="421" type="curve" smooth="yes"/>
			<point x="143" y="483"/>
			<point x="132" y="497"/>
			<point x="113" y="497" type="curve" smooth="yes"/>
			<point x="88" y="497"/>
			<point x="68" y="472"/>
			<point x="68" y="343" type="curve" smooth="yes"/>
			<point x="68" y="133"/>
			<point x="132" y="41"/>
			<point x="236" y="41" type="curve" smooth="yes"/>
			<point x="299" y="41"/>
			<point x="381" y="85"/>
			<point x="426" y="280" type="curve" smooth="yes"/>
			<point x="433" y="317"/>
			<point x="394" y="336"/>
			<point x="397" y="299" type="curve" smooth="yes"/>
			<point x="400" y="127"/>
			<point x="418" y="66"/>
			<point x="418" y="-5" type="curve" smooth="yes"/>
			<point x="418" y="-118"/>
			<point x="386" y="-194"/>
			<point x="281" y="-194" type="curve" smooth="yes"/>
			<point x="179" y="-194"/>
			<point x="169" y="-164"/>
			<point x="138" y="-164" type="curve" smooth="yes"/>
			<point x="117" y="-164"/>
			<point x="108" y="-175"/>
			<point x="108" y="-191" type="curve" smooth="yes"/>
			<point x="108" y="-236"/>
			<point x="179" y="-261"/>
			<point x="283" y="-261" type="curve" smooth="yes"/>
			<point x="401" y="-261"/>
			<point x="485" y="-187"/>
			<point x="485" y="-5" type="curve" smooth="yes"/>
			<point x="485" y="187"/>
			<point x="445" y="231"/>
			<point x="462" y="400" type="curve" smooth="yes"/>
			<point x="470" y="476"/>
			<point x="445" y="496"/>
			<point x="424" y="496" type="curve" smooth="yes"/>
			<point x="404" y="496"/>
			<point x="399" y="489"/>
			<point x="395" y="452" type="curve" smooth="yes"/>
			<point x="375" y="255"/>
			<point x="321" y="106"/>
			<point x="232" y="106" type="curve" smooth="yes"/>
			<point x="160" y="106"/>
			<point x="127" y="234"/>
		</contour>
	</outline>
</glyph>
<glyph name="z.alt1" format="2">
	<advance width="603"/>
	<outline>
		<contour>
			<point x="106" y="472" type="curve" smooth="yes"/>
			<point x="166" y="491"/>
			<point x="249" y="506"/>
			<point x="315" y="506" type="curve" smooth="yes"/>
			<point x="470" y="506"/>
			<point x="516" y="451"/>
			<point x="516" y="397" type="curve" smooth="yes"/>
			<point x="516" y="311"/>
			<point x="419" y="199"/>
			<point x="116" y="67" type="curve"/>
			<point x="126" y="87" type="line"/>
			<point x="145" y="50"/>
			<point x="171" y="46"/>
			<point x="223" y="46" type="curve" smooth="yes"/>
			<point x="296" y="46"/>
			<point x="388" y="58"/>
			<point x="466" y="58" type="curve" smooth="yes"/>
			<point x="513" y="58"/>
			<point x="544" y="42"/>
			<point x="544" y="20" type="curve" smooth="yes"/>
			<point x="544" y="4"/>
			<point x="530" y="-10"/>
			<point x="508" y="-10" type="curve" smooth="yes"/>
			<point x="428" y="-10"/>
			<point x="307" y="-20"/>
			<point x="213" y="-20" type="curve" smooth="yes"/>
			<point x="101" y="-20"/>
			<point x="67" y="31"/>
			<point x="67" y="75" type="curve" smooth="yes"/>
			<point x="67" y="99"/>
			<point x="77" y="123"/>
			<point x="110" y="137" type="curve" smooth="yes"/>
			<point x="332" y="233"/>
			<point x="465" y="335"/>
			<point x="454" y="426" type="curve"/>
			<point x="471" y="379" type="line"/>
			<point x="440" y="425"/>
			<point x="401" y="440"/>
			<point x="331" y="440" type="curve" smooth="yes"/>
			<point x="217" y="440"/>
			<point x="148" y="406"/>
			<point x="108" y="406" type="curve" smooth="yes"/>
			<point x="95" y="406"/>
			<point x="81" y="423"/>
			<point x="81" y="442" type="curve" smooth="yes"/>
			<point x="81" y="459"/>
			<point x="87" y="466"/>
		</contour>
	</outline>
</glyph>
<glyph name="zero.alt1" format="2">
	<advance width="700"/>
	<outline>
		<contour>
			<point x="285" y="567" type="curve" smooth="yes"/>
			<point x="211" y="510"/>
			<point x="145" y="398"/>
			<point x="145" y="270" type="curve" smooth="yes"/>
			<point x="145" y="144"/>
			<point x="193" y="50"/>
			<point x="317" y="50" type="curve" smooth="yes"/>
			<point x="446" y="50"/>
			<point x="554" y="179"/>
			<point x="554" y="417" type="curve" smooth="yes"/>
			<point x="554" y="553"/>
			<point x="516" y="653"/>
			<point x="400" y="653" type="curve" smooth="yes"/>
			<point x="328" y="653"/>
			<point x="249" y="603"/>
			<point x="195" y="523" type="curve" smooth="yes"/>
			<point x="187" y="512"/>
			<point x="168" y="511"/>
			<point x="151" y="511" type="curve" smooth="yes"/>
			<point x="139" y="511"/>
			<point x="128" y="522"/>
			<point x="128" y="534" type="curve" smooth="yes"/>
			<point x="128" y="581"/>
			<point x="265" y="718"/>
			<point x="400" y="718" type="curve" smooth="yes"/>
			<point x="554" y="718"/>
			<point x="621" y="604"/>
			<point x="621" y="417" type="curve" smooth="yes"/>
			<point x="621" y="125"/>
			<point x="466" y="-16"/>
			<point x="317" y="-16" type="curve" smooth="yes"/>
			<point x="185" y="-16"/>
			<point x="78" y="71"/>
			<point x="78" y="270" type="curve" smooth="yes"/>
			<point x="78" y="479"/>
			<point x="217" y="640"/>
			<point x="285" y="640" type="curve" smooth="yes"/>
			<point x="302" y="640"/>
			<point x="311" y="635"/>
			<point x="311" y="611" type="curve" smooth="yes"/>
			<point x="311" y="594"/>
			<point x="303" y="581"/>
		</contour>
	</outline>
</glyph>
